<?xml version="1.0" encoding="utf-8"?>
<svg xmlns="http://www.w3.org/2000/svg" fill="none" version="1.1" viewBox="-1 -2835.65 2836.65 2836.65" x="-1pt" y="-2835.65pt" width="2836.65pt" height="2836.65pt" stroke-width="0.566929" stroke-miterlimit="10.000000">
 <path d="M0 -0L2834.65 -0L2834.65 -2834.65L0 -2834.65Z" fill="#fff"/>
 <g fill="black" transform="matrix(3.571429,-0.000000,-0.000000,3.571429,0.000000,-2834.645669)"><svg:svg xmlns:inkscape="http://www.inkscape.org/namespaces/inkscape" xmlns:sodipodi="http://sodipodi.sourceforge.net/DTD/sodipodi-0.dtd" xmlns="http://www.w3.org/2000/svg" xmlns:svg="http://www.w3.org/2000/svg" xmlns:sketch="http://www.bohemiancoding.com/sketch/ns" width="210mm" height="210mm" viewBox="0 0 210 210" version="1.1" id="svg5" inkscape:version="1.1 (c68e22c387, 2021-05-23)" sodipodi:docname="austria.svg">
  <sodipodi:namedview id="namedview7" pagecolor="#ffffff" bordercolor="#666666" borderopacity="1.0" inkscape:pageshadow="2" inkscape:pageopacity="0.0" inkscape:pagecheckerboard="0" inkscape:document-units="mm" showgrid="false" inkscape:zoom="0.77771465" inkscape:cx="21.858917" inkscape:cy="522.68528" inkscape:window-width="2560" inkscape:window-height="1387" inkscape:window-x="1432" inkscape:window-y="1588" inkscape:window-maximized="1" inkscape:current-layer="g876"/>
  <svg:defs id="defs2"/>
  <svg:g inkscape:label="Layer 1" inkscape:groupmode="layer" id="layer1">
    <svg:g id="g876" transform="matrix(0.08466655,0,0,0.08466655,-24.694681,26.954733)">
      <svg:g style="font-style:normal;font-weight:400;font-size:34.375px;font-family:'MS Shell Dlg 2';fill:#fdfbea;fill-opacity:1;fill-rule:evenodd;stroke:#656564;stroke-width:3.07087;stroke-linecap:square;stroke-linejoin:bevel;stroke-opacity:1" id="parishes" font-size="34.375" transform="matrix(0.999877,0,0,0.999877,-114.60107,-103.05443)" font-weight="400" font-style="normal"/>
      <svg:path d="m 1394.2471,811.62623 -2.4414,-15.70727 -25.8915,-27.57918 -4.2687,-23.03607 5.7976,-2.60262 13.4489,-11.1184 12.5316,-6.57512 5.6628,-17.26021 15.0909,-1.98625 12.8084,-5.63865 16.302,-18.12932 35.3197,-10.36482 9.315,-8.53977 34.6119,-1.82496 25.3883,-15.68079 17.2144,-19.0418 12.4908,-33.05902 V 577.7748 l 2.2823,-17.51064 -1.8273,-19.97836 20.8692,-13.40075 17.3949,7.0302 15.0933,3.06011 6.8715,6.25493 8.8358,9.90974 14.3374,4.26868 9.1538,-17.53463 8.6986,-3.05761 7.011,-6.09604 2.4414,-12.67135 7.7622,-7.92348 -3.8113,-32.85418 4.2686,-5.04636 -9.291,-10.06631 11.872,-19.4992 21.2087,5.50135 15.2281,9.75084 12.4884,8.37848 4.271,7.46601 7.6249,11.27729 -5.434,19.05629 17.7394,14.52988 49.0767,1.23276 39.4945,18.24484 14.53,-16.1141 10.2204,0.64277 9.6327,-27.55989 16.379,8.29654 13.4081,6.1563 15.5219,-6.18269 6.6089,5.77826 9.4185,1.28563 6.4211,12.5774 9.1007,-1.23275 1.8996,-48.40745 4.4445,-11.26761 21.541,-9.41857 10.2733,-24.77678 37.7827,4.92364 0.455,-34.31817 11.908,-30.9089 -7.2516,-31.6264 9.8471,-19.37412 43.4838,3.98943 1.9261,14.4842 5.9661,13.27075 18.358,-5.56401 h 12.0717 l 6.3946,-19.82909 4.6324,6.34407 15.334,-0.61635 21.8395,13.43213 18.9215,-0.64046 8.5086,12.78917 21.7816,9.82069 17.9534,2.14043 12.5775,16.42949 30.0782,1.71183 7.9453,-10.62475 14.2626,2.75912 78.1319,56.75465 70.2085,0.13481 15.5458,-1.89961 19.5909,-4.70928 5.9925,-26.43805 18.5434,0.42861 8.2701,-2.99755 27.8609,13.88721 11.9345,-1.97665 9.7943,9.28856 1.0689,9.33912 h 14.7442 l 14.8791,5.11132 18.1943,-0.64037 16.379,2.78071 7.6779,12.79166 9.6328,40.11091 4.4951,20.04332 0.4286,9.0743 -15.977,21.46385 -10.059,17.74178 -3.426,13.19129 0.6428,11.32058 -1.2592,12.78926 3.8522,10.03495 14.2122,15.95041 4.495,15.35812 12.5773,10.6778 1.9021,13.16721 5.9925,18.1679 2.7831,14.0508 11.5013,5.22454 18.358,16.85809 9.3921,12.26193 v 13.38156 l 0.8547,18.75769 18.5459,1.49758 3.7992,11.02687 -12.1995,13.88711 -1.2832,7.65378 -4.495,18.19437 1.0689,13.1937 -10.4105,8.69866 -8.913,4.46855 6.609,13.81007 3.8546,10.65123 -0.6693,8.91061 1.9261,4.01587 2.1404,12.33667 v 9.63282 l 5.7806,12.17529 -12.9795,3.39958 -32.5943,10.46106 -14.2891,0.64285 -8.6722,-4.6828 -15.3606,12.19937 -21.7287,-1.28322 -6.9869,-19.42713 -12.9794,-5.11132 -10.437,-2.14034 -8.0558,-4.41798 -11.5061,2.56895 -10.6512,1.06897 -5.9661,8.75163 -7.0641,5.08492 -11.9609,13.83655 -12.0453,3.373 -2.971,9.52699 15.3678,10.38641 15.8132,-3.85456 20.3683,9.77003 11.7445,-2.3546 12.3293,7.89941 1.2857,19.82906 12.8158,13.69935 v 5.77826 l -5.3499,8.1089 -7.3383,3.828 0.6429,14.9296 -9.6305,11.3447 -10.437,11.0268 -5.2751,8.836 h -18.5698 l -6.0263,4.8466 -13.2445,-8.7758 -1.6876,18.4134 -6.2069,13.863 10.8391,6.4212 5.1379,13.7835 0.6404,8.9131 1.4133,13.3525 -11.9682,6.5825 -0.6429,11.0533 -4.8177,5.8891 2.9952,11.2676 6.2935,9.4522 1.9261,15.0934 17.2867,-10.0349 4.0665,11.7467 -5.1379,8.7517 -9.3415,3.8257 -1.069,7.6538 5.2485,10.0421 h 11.0774 l -0.1877,8.6723 -17.2602,7.2782 v 6.5583 l 9.5533,5.942 -7.6273,5.4604 -51.9418,0.6164 -17.7995,14.6672 -17.8765,24.8875 -19.4006,20.0698 -14.0749,12.4739 -15.7169,12.144 -12.4978,0.8571 -0.6164,45.0609 4.418,8.0029 6.9844,3.8546 4.4686,7.6803 1.2327,16.5981 -14.9297,-12.4137 -9.2043,-3.6379 -12.818,-6.4211 -18.3822,-5.995 -19.2369,3.8546 -12.363,4.0665 -11.0799,5.966 h -12.977 l -8.8623,-1.7118 -13.6465,8.5615 -19.1622,4.495 -8.0294,5.9685 v 12.2836 l -15.7891,3.4261 -7.1723,3.8016 -10.2492,-8.99 -8.9899,-4.0665 -22.8243,4.2808 -19.9062,-1.5 -13.4079,5.1379 -17.501,-3.6379 -18.3051,-1.902 -23.0384,2.7567 -10.059,1.0714 -12.7651,16.0876 -11.2412,-7.8945 -10.8655,6.1802 -21.2545,7.6948 -7.4155,19.7497 -7.4901,22.6387 -26.9771,11.0534 -13.6488,14.1255 -13.5429,9.7436 -12.5004,4.8706 -0.8546,8.6987 -8.1088,11.4819 -8.0054,-3.0239 -11.6938,-12.9795 -8.7516,0.6429 -18.6542,-2.9976 -4.9236,-7.6537 -33.4754,7.6537 -50.3337,-4.0399 -22.268,-19.4006 -18.3315,-1.0713 -13.2442,1.2856 -26.6452,-16.0539 -18.972,4.9235 h -18.9984 l -17.7152,-8.3472 h -25.1283 l -17.927,-10.7018 -16.6439,1.2832 -8.7252,-4.7093 -16.6439,-0.6428 h -18.1148 l -11.6698,-6.6089 -22.398,7.7067 -14.0243,0.6164 -15.8132,-3.8546 -23.6813,-8.9634 -15.5725,-7.6804 -37.8043,-1.9261 -52.5582,-2.3546 -7.921,-12.173 -14.6383,-7.6561 -9.7942,7.8946 -15.4713,-12.876 -38.8541,2.1404 -13.1407,-8.7492 -22.5858,-5.1379 -15.3606,-10.035 -6.1298,-10.7018 -7.7044,-16.2418 -12.1223,-5.0848 -10.2757,-5.3521 -2.7808,-8.4581 v -9.2884 l 5.9396,-7.4132 -14.8188,-26.5318 -14.2652,6.8232 -7.8151,-10.0951 -15.3341,-7.2518 4.2278,-12.5244 -7.0615,-10.2492 -1.7143,-30.1602 24.2977,-2.7832 7.2276,-20.744 -6.2068,-6.1827 -28.2027,2.5689 -20.4961,10.2492 -19.6413,5.7277 -20.094,3.2094 -12.9553,11.5084 -19.9037,7.2758 -19.2392,2.5689 -3.4237,11.5589 -7.9211,-2.5689 -16.5668,-9.5534 -19.8531,-2.5448 -8.88644,-3.2094 -23.06744,7.0639 -14.28913,-12.9553 -18.94556,22.1332 -26.57525,-11.9105 -53.51876,11.1063 -13.61501,13.5092 -14.55646,13.0059 -0.64286,13.6463 -7.4636,14.6407 -4.49494,11.7468 -13.86313,21.5745 -10.86309,-1.2856 H 758.6035 l -14.45293,0.6429 -18.59391,-5.564 -13.9136,-8.7758 -12.12241,1.2833 11.77086,-19.35 -16.00098,1.5 -11.26761,-16.6199 -14.28924,1.9285 -21.56737,7.2519 -26.73655,-4.8731 -8.39776,-17.8837 10.03494,-19.1598 -12.55092,-11.6962 -12.3125,-11.0534 -5.91556,-4.6322 -9.79411,-4.8971 -19.26335,27.3721 -9.28856,6.3441 h -10.41049 l -3.64031,12.3631 -7.91869,9.5799 -28.50125,12.1488 -16.42958,-4.9211 -11.19056,-9.7172 -10.22281,-11.5083 -11.74669,-5.3498 -11.29169,-1.6877 -13.6223,-7.466 -3.20931,-10.9162 5.51334,-14.9296 v -5.7277 l -5.94194,-10.815 -10.91605,-0.6163 -15.92403,-11.2412 -12.17528,-1.2832 -24.08336,-10.8391 -19.02501,3.6379 7.49258,-39.0924 -16.35253,-16.1887 -4.20373,-21.8419 -7.81746,-7.6539 12.1488,-9.1777 -16.59087,-10.0085 24.1604,-24.5625 4.70929,-22.6123 14.932,2.7567 9.57987,-8.3207 -8.41936,-21.2303 -1.71183,-11.3519 -18.73121,-8.3231 -3.18532,-10.4611 13.43212,-5.7807 13.59581,2.0898 15.11978,-5.7542 9.79412,-13.80761 15.97699,-15.28356 h 8.74923 l 2.99745,11.93455 5.564,3.85217 9.17783,4.89945 16.48255,-2.56885 10.48754,10.24685 8.32312,7.7067 2.32811,12.0958 13.27083,1.2328 7.25175,11.5589 13.21778,5.7806 -0.61638,12.1223 -8.93709,4.6828 3.82578,8.6723 0.42851,13.8366 20.68627,-3.8522 22.42209,-3.8546 v 7.4154 l -7.49258,16.9087 v 12.7652 l -9.60394,8.9129 -0.64286,9.8207 21.35321,-0.6428 47.57682,-38.074 4.89706,-10.5983 14.07489,-12.339 14.52998,-16.8823 -1.90201,-13.6222 -13.43212,-24.1604 5.53992,-13.6223 -7.86804,-10.62476 21.16286,-4.92363 v 15.38709 l 24.56492,8.9371 17.04587,-15.35813 12.17538,3.42353 14.69117,-1.2832 4.89706,7.0374 12.52445,3.6379 2.27764,10.307 10.86549,-1.2832 30.29021,-8.5615 2.99746,9.982 -11.53243,14.855 18.46639,1.8996 17.49855,23.0649 -6.58241,18.7071 48.62171,1.7118 22.63634,-16.4536 18.94556,1.2833 -5.75186,14.1615 20.92461,-0.4285 20.496,-24.8297 h 20.76323 l -6.34407,-8.0054 14.07489,-17.2072 43.34668,-3.4259 1.92609,-19.4247 21.81543,-15.92631 10.8415,5.11131 31.8406,-1.28322 19.8532,5.77822 6.6619,-12.46656 42.4726,-5.34974 65.232,4.63224 -2.9952,-10.8391 -2.5423,-32.48352 25.8457,-13.19369 -3.1853,18.04018 24.7262,-4.2566 23.2287,4.49503 14.477,-2.37877 v 12.28371 l 18.2544,20.0698 18.9239,-7.98845 16.326,-15.92393 42.0634,1.68775 9.1538,10.8391 13.6199,16.21523 -6.3441,12.52435 -0.6405,11.29417 3.6115,8.2967 14.932,0.6162 31.181,35.888 13.1263,-3.337 5.9155,4.495 16.4801,-11.9875 -9.9555,-13.4321 9.1008,-13.8101 -3.6403,-11.2676 7.6297,-7.41302 0.6428,-10.00847 8.9636,-9.17774 0.6404,-19.80507 -26.7028,-19.85315 -9.3657,3.85217 -25.0512,1.90201 -3.1852,-13.16961 13.7836,-17.18077 V 903.4983 l 21.9189,-24.94047 -1.6877,-11.90797 -11.2677,-11.91056 -11.506,-24.24456 -9.9579,-8.67467 -9.3656,-2.32812 z m 0,0" id="Path-1" fill="#000000" sketch:type="MSShapeGroup" style="fill-rule:evenodd;stroke:none;stroke-width:1.2327"/>
    </svg:g>
  </svg:g>
</svg:svg></g>
</svg>
