<?xml version="1.0" encoding="utf-8"?>
<svg xmlns="http://www.w3.org/2000/svg" fill="none" version="1.1" viewBox="-1 -2835.65 2836.65 2836.65" x="-1pt" y="-2835.65pt" width="2836.65pt" height="2836.65pt" stroke-width="0.566929" stroke-miterlimit="10.000000">
 <path d="M0 -0L2834.65 -0L2834.65 -2834.65L0 -2834.65Z" fill="#fff"/>
 <g fill="black" transform="matrix(3.571429,-0.000000,-0.000000,3.571429,0.000000,-2834.645669)"><svg:svg xmlns:inkscape="http://www.inkscape.org/namespaces/inkscape" xmlns:sodipodi="http://sodipodi.sourceforge.net/DTD/sodipodi-0.dtd" xmlns="http://www.w3.org/2000/svg" xmlns:svg="http://www.w3.org/2000/svg" width="210mm" height="210mm" viewBox="0 0 210 210" version="1.1" id="svg5" inkscape:version="1.1 (c68e22c387, 2021-05-23)" sodipodi:docname="gaza.svg">
  <sodipodi:namedview id="namedview7" pagecolor="#ffffff" bordercolor="#666666" borderopacity="1.0" inkscape:pageshadow="2" inkscape:pageopacity="0.0" inkscape:pagecheckerboard="0" inkscape:document-units="mm" showgrid="false" inkscape:zoom="0.77771465" inkscape:cx="21.858917" inkscape:cy="522.68528" inkscape:window-width="2560" inkscape:window-height="1387" inkscape:window-x="1432" inkscape:window-y="1588" inkscape:window-maximized="1" inkscape:current-layer="g876"/>
  <svg:defs id="defs2"/>
  <svg:g inkscape:label="Layer 1" inkscape:groupmode="layer" id="layer1">
    <svg:g id="g876" transform="matrix(0.08466655,0,0,0.08466655,-24.694681,26.954733)">
      <svg:g style="font-style:normal;font-weight:400;font-size:34.375px;font-family:'MS Shell Dlg 2';fill:#fdfbea;fill-opacity:1;fill-rule:evenodd;stroke:#656564;stroke-width:3.07087;stroke-linecap:square;stroke-linejoin:bevel;stroke-opacity:1" id="parishes" font-size="34.375" transform="matrix(0.999877,0,0,0.999877,-114.60107,-103.05443)" font-weight="400" font-style="normal"/>
      <svg:g id="g2588" transform="matrix(5.6961789,1.8877849,-1.8877849,5.6961789,1307.1884,-479.33591)" style="fill:#000000;fill-opacity:1;stroke:none;stroke-opacity:0">
        <svg:path style="opacity:1;fill:#000000;fill-opacity:1;fill-rule:evenodd;stroke:none;stroke-width:2;stroke-linecap:butt;stroke-linejoin:miter;stroke-miterlimit:4;stroke-dasharray:none;stroke-opacity:0" d="M 9.4444445,326.94444 51.666667,371.11111 78.333333,409.44444 96.666667,384.72222 110,358.05556 l 7.5,-13.33334 c 0,0 -0.27778,-14.16666 9.72222,-22.77778 0,0 6.66667,-4.44444 9.16667,-13.88888 l -15.83333,-31.94445 -1.66667,2.22222 -12.77778,-29.72222 5.55556,-8.05555 22.77777,-60.83334 29.72223,-55.55555 10.27777,-33.333337 14.16667,-3.888889 19.72222,-32.222222 3.05556,-17.5 -28.61111,-13.055556 -45.55556,-11.944444 -5.83333,15.833333 -5.55556,32.777778 -11.94444,33.055556 -12.77778,36.388891 -17.222221,38.61111 -11.388889,30 -5,16.38889 -20.277778,36.11111 -13.888889,29.16667 -9.444444,23.88888 -5.833333,10.27778 z" id="path2238" sodipodi:nodetypes="ccccccss"/>
        <svg:path style="opacity:1;fill:#000000;fill-opacity:1;fill-rule:evenodd;stroke:none;stroke-width:2;stroke-linecap:butt;stroke-linejoin:miter;stroke-miterlimit:4;stroke-dasharray:none;stroke-opacity:0" d="m 18.472222,314.16667 c 0,0 6.944445,-2.5 22.5,5.27777 0,0 17.916667,4.86112 25.277778,4.44445 0,0 17.5,2.08333 25.972222,10.83333 0,0 10.694448,10.41667 17.361108,24.72222" id="path2242" sodipodi:nodetypes="cssss"/>
        <svg:path style="opacity:1;fill:#000000;fill-opacity:1;fill-rule:evenodd;stroke:none;stroke-width:2;stroke-linecap:butt;stroke-linejoin:miter;stroke-miterlimit:4;stroke-dasharray:none;stroke-opacity:0" d="m 111.11111,240.13889 c 0,0 -14.305554,1.94444 -15.555554,0.83333 0,0 -6.111111,-8.33333 -8.055556,-5.83333 0,0 -3.055555,4.86111 -9.722222,3.61111 0,0 -2.638889,-1.66667 -11.527778,1.94444 0,0 -3.788901,0.7611 -7.324435,-10.23834" id="path2244" sodipodi:nodetypes="csssss"/>
        <svg:path style="opacity:1;fill:#000000;fill-opacity:1;fill-rule:evenodd;stroke:none;stroke-width:2;stroke-linecap:butt;stroke-linejoin:miter;stroke-miterlimit:4;stroke-dasharray:none;stroke-opacity:0" d="m 126.0025,60.84868 c 0,0 10.01735,2.553441 13.55288,8.053161 0,0 7.56211,9.329881 12.27616,9.919136 0,0 18.85618,3.928371 24.15948,3.535534 0,0 5.10688,-2.357022 6.58002,0.589256 0,0 0.39284,4.321208 0,5.794347" id="path2246" sodipodi:nodetypes="csssss"/>
        <svg:path style="opacity:1;fill:#000000;fill-opacity:1;fill-rule:evenodd;stroke:none;stroke-width:2;stroke-linecap:butt;stroke-linejoin:miter;stroke-miterlimit:4;stroke-dasharray:none;stroke-opacity:0" d="m 134.84134,178.99444 c 0,0 -4.12479,-0.68747 -11.88333,-12.86542 0,0 -7.95495,-3.14269 -3.2409,-7.56211 0,0 -5.79435,-8.64242 -13.84751,-5.20509 0,0 -0.49105,-5.59793 -8.24958,-3.63375 0,0 -2.062395,2.16061 -5.794348,1.66956" id="path2250" sodipodi:nodetypes="csssss"/>
      </svg:g>
    </svg:g>
  </svg:g>
</svg:svg></g>
</svg>
