<?xml version="1.0" encoding="utf-8"?>
<svg xmlns="http://www.w3.org/2000/svg" fill="none" version="1.1" viewBox="-1 -2835.65 2836.65 2836.65" x="-1pt" y="-2835.65pt" width="2836.65pt" height="2836.65pt" stroke-width="0.566929" stroke-miterlimit="10.000000">
 <path d="M0 -0L2834.65 -0L2834.65 -2834.65L0 -2834.65Z" fill="#fff"/>
 <g fill="black" transform="matrix(3.571429,-0.000000,-0.000000,3.571429,0.000000,-2834.645669)"><svg:svg xmlns:inkscape="http://www.inkscape.org/namespaces/inkscape" xmlns:sodipodi="http://sodipodi.sourceforge.net/DTD/sodipodi-0.dtd" xmlns="http://www.w3.org/2000/svg" xmlns:svg="http://www.w3.org/2000/svg" width="210mm" height="210mm" viewBox="0 0 210 210" version="1.1" id="svg5" inkscape:version="1.1 (c68e22c387, 2021-05-23)" sodipodi:docname="jersey.svg">
  <sodipodi:namedview id="namedview7" pagecolor="#ffffff" bordercolor="#666666" borderopacity="1.0" inkscape:pageshadow="2" inkscape:pageopacity="0.0" inkscape:pagecheckerboard="0" inkscape:document-units="mm" showgrid="false" inkscape:zoom="1.0998546" inkscape:cx="248.21463" inkscape:cy="463.24305" inkscape:window-width="2560" inkscape:window-height="1387" inkscape:window-x="1432" inkscape:window-y="1588" inkscape:window-maximized="1" inkscape:current-layer="g876"/>
  <svg:defs id="defs2"/>
  <svg:g inkscape:label="Layer 1" inkscape:groupmode="layer" id="layer1">
    <svg:g id="g876" transform="matrix(0.08466655,0,0,0.08466655,-24.694681,26.954733)">
      <svg:g style="font-style:normal;font-weight:400;font-size:34.375px;font-family:'MS Shell Dlg 2';fill:#fdfbea;fill-opacity:1;fill-rule:evenodd;stroke:#656564;stroke-width:3.07087;stroke-linecap:square;stroke-linejoin:bevel;stroke-opacity:1" id="parishes" font-size="34.375" transform="matrix(0.999877,0,0,0.999877,-114.60107,-103.05443)" font-weight="400" font-style="normal"/>
      <svg:g style="font-style:normal;font-weight:400;font-size:34.375px;fill:#000000;fill-opacity:1;fill-rule:evenodd;stroke:#ffffff;stroke-width:4.25197;stroke-linecap:square;stroke-linejoin:bevel;stroke-opacity:0" id="coast" font-size="34.375" transform="matrix(0.7716045,0,0,0.7716045,209.27407,19.797521)" font-weight="400" font-style="normal">
        <svg:path style="fill:#000000;fill-opacity:1;fill-rule:evenodd;stroke:#ffffff;stroke-opacity:0" inkscape:connector-curvature="0" id="path80" d="m 1359.2,1479.76 -7,1.43 -21.63,3.91 -16.67,4.63 -14.78,5.21 -3.66,1.27 -10.7,4.12 -13.99,5.59 -10.72,5.38 -10.75,5.57 -17.35,10.72 -0.71,-0.44 -12.1,8.81 -5.86,4.79 -11.59,12.31 -4.3,4.59 -9.25,11.12 -4.9,7.93 -3.24,5.9 -4.35,11.91 -4.4,9.98 -3.78,8.79 -2.95,8.55 -1.12,4.48 -0.18,4.43 1.08,5.26 2.04,4.79 1.68,2.64 21.86,16.01 -1.17,1.73 -20.16,-14.82 -18.19,0.96 -0.99,6.62 0.19,3.25 0.66,2.96 1.83,4.92 4.14,6.35 4.35,6.48 6.29,9.73 5.39,-2.77 7.14,-3.95 7.48,-10.14 6.41,-8.26 1.94,1.48 -7.81,9.87 -6.28,7.76 -3.33,2.06 0.64,1.73 -6.2,10.32 2.1,2.42 -0.45,1.64 -3.43,0.64 -2.02,2.67 -2.47,3.51 -2.69,2.56 -3.41,3.45 -1.58,2.8 1.78,4.93 -1.16,2.05 -0.77,-2.11 -2.73,1.31 -1.91,3.15 -1.41,4.15 -0.1,3.06 0.72,3.19 0.46,1.99 -2.31,0.42 -0.82,2.33 -0.49,5.5 0.45,3.78 1.56,4.22 1.62,2.88 2.31,1.29 3.19,0.49 4.64,-0.39 -0.72,-2.36 1.14,-1.64 4.17,1.93 2.47,1.97 0.31,4.56 -4.45,7.17 -3.34,3.41 -0.85,2.3 -0.06,2.63 0.59,2.16 1.83,3.65 1.87,2.08 4.04,-1.16 2.47,1.25 -6.71,6.15 -2.89,-2.02 -2.67,2.96 -2.27,4.06 -3.16,6.05 -3.08,5.8 -2.47,6.7 -1.47,4.28 0.17,2.84 2.54,1.92 -2.33,2.73 -1.51,-0.21 -1.95,0.27 -0.59,2 -0.03,1.91 3.04,0.47 -1.14,2.91 1.03,2.12 -0.42,2.65 1.04,0.29 0.27,1.99 -1.11,0.83 -0.14,1.71 0.57,3.06 0.85,2.83 1.71,2.15 1.71,0.71 0.23,1.62 1.34,-1.07 1.46,1.66 1.98,0.14 1.08,-1.36 2.35,-0.15 0.22,-2.39 2.1,0.22 0.45,1.48 1.72,1.45 -0.59,2.72 -1.41,1.68 1.98,1.43 -0.56,3.59 -1.38,1.13 0.13,1.5 0.16,4.72 0.12,2.43 0.48,3.33 0.71,2.72 7.83,0.03 3.07,-0.03 6.55,3.37 2.11,3.87 3.21,0.02 -0.36,2.55 2.63,0.87 1.28,-0.94 1.34,0.15 0.01,1.66 4.65,1.92 2.03,-1.65 1.36,-0.06 -0.36,2.35 5.53,3.6 2.43,-1.19 2.21,0.32 0.68,1.34 -0.55,1.1 3.98,1.8 -0.2,3.62 1.78,3.24 -1.31,1.68 -2.43,0.69 0.37,1.46 -2.32,1.68 -2.02,-0.9 -1.52,1.26 -1.18,2.08 -0.4,2.19 1.46,1.54 -0.74,2.06 -1.48,1.36 -0.03,1.86 1.03,3.15 1.82,-1.58 2.49,0.48 v 3.29 l -1.29,2.21 1,3.73 2.14,0.18 -1.81,1.66 0.74,0.78 -1.58,2.16 2.43,2.98 0.42,3.71 0.92,0.4 -2.24,2.32 2.32,0.23 -1.44,3.99 1.02,0.38 0.37,2.38 1.99,2.03 -0.53,1.81 1.45,1.31 1.07,2.65 1.27,2.62 -0.96,1.85 -1.44,1.16 -1.83,0.32 -1.98,0.87 -1.82,2.93 0.27,1.94 1.44,0.57 1.74,0.72 -0.81,3.68 1.92,4.77 -3.66,3.62 -4.43,0.5 -1.3,4.74 0.44,2.65 -1.17,3.33 -1.68,1.6 0.91,1.9 -1.53,3.06 -1.45,-0.42 -2.32,4.29 -2.06,0.69 -3.18,7.1 -4.36,6.17 1.32,2.3 -1.11,1.81 -3.97,0.78 -0.45,2.69 5.27,6.26 -3.4,0.55 -0.45,1.39 -0.95,1.74 -1.3,0.01 -1.43,2.43 1.65,1.51 -3.91,1.53 -2.72,0.07 0.83,1.78 1.21,2.91 -1.05,3.7 -2.19,-1.13 -1.4,4.78 -2.72,0.86 -1.19,-1.51 -1.71,0.66 0.46,-2.06 -3.01,1.65 -1.96,1.65 -0.7,1.81 2.92,2.94 0.54,9.66 -2.75,1.35 -4.23,5.73 -0.67,6.29 -2.95,2.91 -1.76,1.87 -0.06,3.45 -4.29,2.51 -4.66,0.53 -3.98,-1.04 3.44,-2.24 1.17,-4.38 -5.54,-9.13 -3.73,-0.08 -1.45,-3.28 -5.53,2.98 -9.71,0.35 -6.98,-4.27 -8.79,-3.14 -3,-10.09 -1.31,-11.53 0.97,-5.42 4.19,-5.66 3.88,-0.87 2.05,-1.95 0.52,-2.86 -0.45,-3.83 0.7,-6.54 -2.45,-3.83 -9.81,-5.15 -8.05,-2.04 -0.54,3.73 -1.68,1.9 -3.98,-0.73 -4,1.05 -1.46,-1.1 0.81,-2.85 -3.34,0.34 -6,-4.9 -1.07,-2.93 -0.93,-2.55 -4.66,-0.95 -2.29,-2.89 0.38,-7.63 -0.51,-10.89 -0.15,-6.72 -0.42,-8.71 -2.97,-1.74 -9.78,-2.16 -6.19,-1.5 -5.31,-2.37 -5.26,-1.86 -4.97,-2.56 -4.63,-2.06 -4.45,-0.92 -3.66,0.41 -2.71,-1.94 -4.66,-0.76 -3.8,-0.58 -4.213,-0.18 -4.456,0.88 -5.406,2.04 -4.385,2.59 -3.601,3.15 -1.26,2.46 0.915,3.3 4.376,1.99 1.876,4.89 -1.85,2.39 -4.708,0.47 -5.469,3.55 -2.42,5.92 -2.51,3.48 -1.351,3.56 0.297,6.29 -2.674,3.44 -2.773,-0.06 -6.933,5.55 -5.203,0.99 -7.296,-0.24 -7.614,-4.36 -3.057,-5.02 -0.517,-4.95 -7.156,0.89 -3.731,4.99 -7.017,3.09 -4.384,2.33 -4.284,1.52 -6.253,1.92 -13.03,-0.06 -0.358,-2.91 -4.17,-0.56 0.086,-2.28 -1.423,-1.2 -1.838,0.12 0.318,2.08 -1.073,0.58 -1.912,-0.57 -0.119,-2.07 1.225,-2.07 -0.555,-3.92 -3.348,0.36 -4.274,-0.05 -0.295,-4.55 2.475,-2.62 3.661,0.06 4.088,-5.1 1.882,-4.54 8.882,-0.27 11.944,-4.42 0.862,-5.32 -0.662,-4.13 1.417,-3.36 2.466,-1.43 2.717,0.27 1.963,-2.82 2.026,-5.72 -0.162,-3.99 -1.968,-2.29 -6.018,-2.7 -3.426,-4.85 -4.787,-3.69 -4.877,-4.49 0.657,-4.01 3.126,-4.17 2.326,-3.9 2.412,-2.32 -0.479,-2.96 -1.403,-2.83 -3.131,-3.57 0.598,-7.08 0.913,-8.3 -0.674,-3.91 -2.185,-4.14 -2.328,-2.29 -1.824,-4.82 -2.418,-3.89 -0.978,-6.82 1.993,-2.65 4.089,-0.36 3.775,-1.54 5.677,-2.79 7.261,-1.55 4.542,-1.49 2.921,0.64 3.451,0.42 h 2.433 l 2.396,-0.57 2.153,-1.68 1.744,-2.77 1.263,-3.96 0.661,-4.64 0.183,-5.88 -0.611,-10.88 -1.573,-11.39 -1.713,-7.38 -3.18,-9.6 -5.757,-12.31 -8.047,-14.99 -8.376,-14.38 -4.643,-5.84 -1.792,2.42 -3.506,0.99 -2.016,-2.39 -0.913,1.09 -1.977,-0.12 -0.583,-1.08 -3.19,-1.44 -1.016,1.32 -1.823,-0.87 -0.888,-2.21 -1.21,-1.93 -0.169,1.84 -1.663,0.27 -0.519,-2.64 0.625,-2.85 -3.487,5.02 -2.041,0.26 1.505,-5.35 0.844,-2.42 0.024,-2.79 2.427,-0.25 0.031,-3.21 -1.036,-3.99 -2.966,-3.81 -4.756,-5.49 -7.082,-6.68 -6.793,-4.95 -9.029,-5.51 -10.847,-5.5 -11.992,-5.64 -8.718,-4.07 -12.252,-4.81 -12.411,-4.36 -10.387,-2.76 -10.681,-1.51 -9.578,-0.21 -9.147,0.97 -8.273,2.45 -7.379,3.65 -6.596,4.37 -4.556,4.71 -2.713,4.17 -0.13,3.15 0.244,3.95 1.048,3.45 2.773,2.13 2.73,2.78 -0.246,2.37 0.391,1.61 2.19,1.64 0.588,0.97 3.299,0.55 3.123,0.31 3.179,0.08 -0.021,0.62 -3.405,0.17 -0.605,1.06 -4.024,-0.09 -1.163,1.95 -3.812,-0.07 -0.544,2.31 0.96,1.66 -0.103,1.56 0.948,3.48 -2.442,3.5 -1.626,3.55 -3.09,-3.42 0.065,-3.36 -0.911,3.02 -1.178,-2.28 -0.812,2.34 -1.26,-0.38 0.101,-0.88 -2.157,-0.66 -0.07,-1.09 1.036,-2.19 -1.905,2.31 -1.024,0.41 -2.978,-0.48 -2.671,4.81 -3.8,-1.32 -3.612,3.92 -2.421,-1.42 -2.989,2.88 -2.478,3.5 -1.199,3.58 4.096,2.83 -0.314,4.72 -2.878,1.19 -1.594,2.33 -0.647,3.73 -1.093,0.63 0.732,4.67 -0.375,2.57 -0.878,0.84 0.686,4.86 1.455,12.81 -0.37,8.3 -1.805,4.38 -2.842,3.88 -2.005,-0.15 -3.436,-3.6 -0.67,-5.68 -0.599,5.72 -2.061,4.95 -3.151,-0.17 -0.857,-3.87 -3.937,-0.88 -1.53,-6.13 1.85,-3.34 -8.993,-6.63 -1.145,-1.3 -1.079,-1 -0.632,-1.68 -1.887,-0.97 -2.133,-0.69 -2.938,-0.58 -3.447,-0.45 -2.936,-0.13 -3.008,0.27 -3.379,0.72 -3.334,1.03 -2.305,0.89 -0.807,1.58 0.574,8.6 -0.311,4.15 -4.686,11.29 3.821,3.45 -3.666,10.67 -5.492,-1.25 -7.844,5.52 -8.488,-6.13 -2.845,-0.72 -7.059,-4.5 -2.371,-3.8 -5.451,-1.94 -2.579,1.01 -0.487,-4.42 -5.231,-1.47 -3.691,-0.76 -3.095,1.99 1.318,1.19 -1.303,4.89 -3.511,-1.15 0.11,-2.32 -3.105,-1.05 -1.338,-1.29 -2.829,0.53 -3.078,3.93 -4.584,1.03 -3.786,4.62 -3.786,-0.09 -2.161,-1.71 0.671,-3.2 -9.808,0.51 -15.158,15.9 -12.45,9.39 -7.769,6.65 -4.152,6.35 -8.658,-2.6 -6.294,1.58 -0.652,4.26 -6.062,1.27 -1.001,-6.31 -7.657,-0.41 0.683,-6.12 -1.166,-1.32 -1.267,0.89 -1.022,1.36 -1.749,0.67 -3.059,-1.33 -2.799,0.74 -2.696,1.65 -0.671,2.48 -4.61,6.56 -6.785,0.8 -2.594,4.06 -5.987,2.11 -6.108,1.27 -1.051,0.94 13.256,-1.12 -2.336,3.41 -5.003,1.41 -2.149,-2.26 -4.763,2.94 -3.232,1.74 -3.737,-2.35 -1.794,1.97 -4.406,-0.38 -3.022,-0.56 -1.705,-2.94 10.001,-1.35 -3.273,-0.73 -3.729,-0.34 -1.59,-1.21 -0.949,-1.13 0.981,-3.67 -1.74,3.35 -0.651,1.09 h -0.97 l -0.264,-2.85 -1.593,2.86 h -1.85 l 1.093,-7.72 2.365,-5.68 -0.049,-2.22 -4.986,5.74 -1.888,6.49 -4.6,3.18 -8.237,-0.3 -0.068,-6.19 0.043,-5.76 -8.032,-1.14 -2.03,7.8 -3.583,-0.29 -1.484,-10.2 -4.412,-6.09 -26.685,-2.57 -11.32,-6.21 3.373,-5.3 7.844,-3.17 -17.723,-3.66 -2.357,-4.71 -2.266,-7.96 -5.809,-5 -0.574,5.17 -1.919,3.76 -2.842,-3.37 -5.497,3.2 -1.136,-2.42 5.922,-4.73 -0.776,-5.62 4.834,-3.18 -2.888,-6.5 -10.888,7.2 -11.016,2.45 0.595,-7.28 4.623,-6.46 1.78,-8.96 -4.214,6.65 -4.21,-0.3 -3.339,-3.06 -0.754,-2.51 -1.832,-8.98 -0.119,-3.35 -2.817,-1.23 2.618,-4.34 -5.34,3.05 -3.209,-3.82 0.773,-6.62 1.201,-10.32 0.188,-1.61 -5.411,0.94 -4.324,3.98 -3.203,2.38 -4.051,11.42 -3.301,7.94 -4.893,3.07 -1.984,-1.17 0.641,-3.32 -2.392,-2.71 -5.935,-0.83 -1.89,7.78 -7.222,1.04 -9.053,-17.56 -4.746,-3.29 -2.874,-9.91 -3.786,-6.65 -7.258,-9.69 -8.732,-5.36 -13.566,-2.14 -12.064,-1.29 -4.335,-4.52 -2.847,-4.21 -5.026,1.34 -1.364,-2.68 -4.597,-9.05 6.057,-4.63 9.802,-0.27 10.57,1.17 5.906,1.42 13.519,1.87 3.039,-0.05 3.54,2.25 1.695,-0.79 2.706,-2.84 0.889,-1.23 4.693,-6.53 6.909,-1.55 2.547,-4.14 3.064,-2.31 1.58,-2.34 0.102,-4.04 1.425,-2.87 5.904,-1.53 11.786,-0.31 3.907,-4.68 0.16,-0.02 10.576,-1.29 4.181,-1.07 5.312,1.57 4.382,0.06 1.156,-0.71 1.438,0.02 1.884,0.53 0.147,-0.02 2.664,-0.43 8.475,0.95 4.98,1.76 h 3.674 l 5.965,-4.89 5.06,-5.8 1.436,-4.23 0.348,-4.81 -0.636,-1.86 -1.419,-1.74 -0.812,-0.99 -0.524,-0.65 -1.297,-1.59 -1.898,-1.98 -1.022,-3.98 -3.709,-1.45 -4.396,-1.68 -5.154,-5.47 -5.714,-1.38 -0.297,-1.55 2.61,-0.9 4.571,1.03 0.906,-3.76 -3.339,-1.92 2.074,-1 0.274,-1.44 -2.59,-0.78 -3.031,-3.51 1.348,-1.44 1.31,-0.12 0.39,-1.69 -4.37,-1.05 -0.383,-1.92 2.689,-2.88 8.06,0.48 5.422,0.61 9.571,-2.57 6.532,0.75 6.346,-2.9 6.191,1.05 3.916,-3.01 3.893,0.93 4.522,2.47 4.218,0.19 4.572,-1.49 2.345,-1.65 1.264,-1.85 2.106,-3.99 -0.264,-1.45 1.598,-0.8 6.241,-4.75 5.479,-7.89 7.348,-12.8 4.194,-5.71 1.691,-3.5 4.865,-14.37 -0.572,-0.28 6.931,-21.38 2.092,-6.46 8.795,-25.27 -1.351,-1.66 2.071,-2.22 5.837,0.86 8.263,-9.38 3.575,-13.63 6.377,-19.7 1.694,-8.21 1.789,-13.05 4.739,-18.48 -1.64,-1.51 1.873,-4.09 0.738,-1.61 0.257,-0.83 1.087,-2.94 0.751,-0.48 5.375,-1.79 0.784,-0.26 2.055,-4.11 1.182,-3.48 6.929,-19.01 4.953,-13.57 3.434,-11.64 2.116,-6.97 1.762,-6.63 3.175,-16.67 1.65,-14.11 1.216,-11.93 0.863,-10.63 0.704,-8.66 -1.024,-0.24 0.579,-10.23 0.329,-29.2 -0.396,-9.47 -1.283,-18.85 -2.197,-18.38 -5.96,-40.79 -1.566,-12.47 -3.377,-25.62 -4.41,-28.86 -1.043,-3.28 -4.225,-2.51 -0.721,-2.35 0.67,-1.56 -2.566,-16.39 -1.896,-12.38 -0.942,-6.15 -1.807,-11.88 -2.988,-19.122 3.243,-0.734 -4.286,-27.746 -4.065,-15.76 -4.015,-22.227 -3.58,-10.962 -0.742,-0.85 -0.719,-1.379 0.795,-0.886 -5.079,-14.285 -7.407,-26.135 -0.672,-2.369 -13.985,-30.396 -1.077,0.136 -4.014,-9.086 0.562,-0.918 -5.307,-12.118 -10.923,-22.551 -12.578,-25.364 -0.937,-1.936 -1.379,-2.806 -0.211,-0.419 -1.265,-2.553 -0.232,-0.133 -0.415,-0.237 -0.245,-0.403 -2.483,-5.163 -0.25,-0.518 -8.667,-17.947 -0.01,-1.979 -16.862,-30.016 -1.122,0.547 -7.798,-12.288 -4.384,-6.267 -8.67,-13.09 -5.924,-12.914 -1.888,-4.235 -0.375,-1.28 -1.616,-11.269 -2.029,-11.105 -3.713,-17.548 -2.46,-8.547 -1.392,-4.223 -3.606,-8.656 -3.518,-6.631 -2.964,-4.885 -4.015,-5.811 -9,-11.977 -10.66,-12.896 -11.971,-11.888 -1.023,-1.094 -11.073,-11.841 -9.073,-8.732 -3.852,-3.19 -1.982,-1.608 -8.076,-3.929 -2.997,-1.028 -3.494,-0.64 -2.397,0.078 -4.692,0.751 -2.929,1.636 -7.001,4.153 -4.835,3.758 -5.433,6.103 1.221,5.06 -3.357,4.442 -1.004,1.182 -3.046,1.303 -3.151,-3.145 4.585,-4.111 -1.534,-7.88 -1.916,-0.949 0.811,-3.384 3.779,-1.905 -0.398,-4.029 -1.428,-11.925 0.241,-14.172 -3.007,-2.655 -1.586,-4.609 2.671,-2.589 3.343,0.004 3.408,-0.051 2.07,3.74 2.097,1.101 1.9,0.174 3.645,-3.6 -4.725,-4.978 -1.531,-13.044 -7.753,-7.977 -1.102,-2.595 -3.129,-0.533 -0.908,-2.442 -0.458,-5.818 -2.909,4.778 -2.931,-4.723 -1.071,-4.763 -1.887,-0.615 -5.902,-8.897 -0.239,-8.515 -0.81,-0.539 -1.446,0.397 -0.542,-2.897 -3.346,0.668 -3.674,-4.803 -1.941,-9.213 0.521,-5.025 -2.759,-4.825 -3.125,-7.056 -2.39,1.181 -1.296,-2.305 1.81,-1.57 -0.693,-4.46 -2.374,-3.128 -0.822,-3.073 1.239,-3.559 5.342,-3.304 3.204,-3.914 1.909,-3.437 -1.14,-4.452 4.11,-7.917 3.473,-4.364 -8.853,2.457 -3.476,-0.909 -4.65,-1.758 -5.606,-4.082 -1.733,-3.006 1.106,-6.653 3.599,-4.213 3.291,-2.499 3.495,-0.903 5.225,-2.693 0.712,-2.567 -2.382,0.389 -3.771,-2.195 1.745,-3.983 2.86,-0.751 3.221,-2.09 1.526,-3.756 -3.374,-1.572 -1.479,-9.118 -6.104,-6.575 3.468,-7.524 3.16,-6.358 8.765,-4.336 10.533,-6.353 14.83,-18.315 -1.932,-8.725 -0.681,-11.937 2.514,1.946 -0.644,-3.309 1.805,-3.013 2.184,-1.137 5.512,-2.023 4.647,4.054 6.665,8.812 1.825,-4.566 -2.143,-8.543 1.844,-2.687 7.514,0.068 1.553,-2.294 -3.979,-2.714 1.939,-3.922 5.294,2.698 0.444,-2.135 -4.164,-4.111 1.197,-1.775 4.581,-0.932 5.849,4.049 3.3,0.27 0.161,0.019 3.642,0.421 3.595,-3.027 -4.041,-2.425 -2.341,-8.053 1.985,-9.052 1.938,-2.926 -1.612,-5.477 5.221,-1.036 -2.545,-2.958 1.576,-2.354 2.278,-1.092 3.711,-0.414 3.015,-3.792 10.692,-0.571 3.399,6.195 2.184,-0.567 0.005,-3.089 1.141,0.08 1.114,1.313 4.314,4.835 2.647,4.12 3.554,-2.076 -0.051,-6.71 0.862,-3.251 1.185,-4.461 3.682,0.275 3.415,2.041 2.085,-0.551 3.567,-1.842 4.792,4.01 4.17,3.761 5.501,3.451 4.62,5.279 1.685,7.571 1.572,1.561 0.731,-2.426 0.883,-7.409 5.181,1.692 1.46,-1.926 1.32,1.508 1.974,9.396 2.428,-0.011 0.479,-6.263 4.276,0.004 3.116,1.382 0.169,5.415 1.263,12.012 4.894,2.419 15.311,0.591 15.691,1.255 1.277,10.007 7.441,0.87 5.66,1.085 3.262,5.047 6.024,1.463 7.224,2.33 6.537,4.519 7.399,-3.592 13.464,4.23 9.889,0.194 0.785,-3.25 4.737,0.529 4.086,2.791 3.988,-2.61 7.729,-11.884 2.011,-1.396 5.565,3.428 4.129,2.157 1.044,0.387 0.739,0.12 0.532,-0.496 0.074,-0.604 -5.217,-4.19 -3.361,-2.699 -1.014,-0.816 1.504,-1.456 3.671,2.897 5.6,4.42 0.805,-2.338 0.354,-4.344 2.785,1.071 1.812,5.427 5.191,5.5 3.404,-4.679 -3.814,-6.022 -8.343,-8.373 -4.943,-8.002 -0.055,-3.688 1.345,-2.888 7.534,-0.282 1.901,-2.367 10.512,-1.934 1.385,-2.608 -3.511,0.157 -3.24,0.919 -3.509,-0.746 -4.489,2.451 -5.303,-4.092 -0.748,-1.606 -0.643,0.674 -1.444,-0.966 -3.602,-1.383 -0.607,-1.162 1.275,-0.971 1.419,-3.628 0.133,-2.59 0.319,-1.303 -0.537,-0.529 -0.525,-2.341 0.809,-1.721 2.099,-1.524 -2.684,-1.158 1.032,-2.975 1.795,0.519 2.671,-4.336 5.137,-3.431 2.094,0.458 1.703,-1.839 4.692,4.131 2.977,0.234 1.691,-0.574 3.309,1.256 3.39,0.663 1.752,-1.21 -1.404,-3.666 2.239,1.405 1.038,-1.248 0.196,-2.403 -1.247,-1.33 1.269,-0.886 -0.349,-1.946 -2.199,-1.385 0.622,-1.257 1.258,0.862 -0.023,-2.111 -1.669,-4.963 -2.278,-2.66 0.58,-3.411 1.435,-0.113 1.804,1.117 4.964,3.958 0.529,-1.068 -1.078,-2.21 2.753,1.834 1.263,-0.995 -0.689,-1.393 -3.641,-2.976 0.546,-1.071 1.232,0.617 8.862,7.042 1.26,3.177 1.408,7.904 -0.033,2.373 -2.665,2.862 -1.512,1.669 -6.957,7.677 0.636,0.854 9.537,-10.081 1.477,3.348 -0.192,2.373 -2.226,1.152 2.394,2.046 -1.737,3.625 0.215,4.952 -1.89,2.305 -2.073,1.528 -2.28,-0.391 -1.268,-0.216 0.695,2.497 4.684,0.501 0.101,2.039 -3.614,1.446 -5.816,-0.596 -4.001,2.076 4.707,4.426 4.543,-1.34 7.884,1.906 3.148,6.724 2.547,-1.304 1.91,-1.399 4.222,1.548 3.594,4.547 6.263,-2.661 1.454,-1.52 1.286,0.341 0.184,2.053 1.757,-1.535 2.418,1.623 0.157,3.586 2.116,1.031 1.253,-3.26 3.456,5.31 -1.504,5.684 2.78,1.574 1.402,0.805 2.133,-1.516 1.347,3.412 3.754,2.255 -0.871,-3.385 1.007,-2.309 4.895,1.627 10.267,10.054 2.74,3.522 3.801,9.22 1.215,3.669 2.691,0.837 -0.118,6.926 1.202,3.268 -3.093,10.17 0.526,0.418 2.227,1.77 0.122,-4.114 2.112,-4.329 3.313,0.921 2.437,-4.612 1.971,-2.997 1.73,0.405 7.317,4.896 1.036,-3.201 5.376,2.629 -0.264,6.9 1.358,5.77 -4.594,6.755 4.878,-1.198 1.224,-3.404 2.544,3.205 0.775,2.303 -1.12,4.867 1.404,1.691 1.49,-3.694 -0.072,-2.308 2.117,-3.245 5.065,-1.791 4.923,0.332 0.588,3.654 1.628,1.17 0.69,3.998 1.162,0.001 2.401,-4.924 2.069,-1.231 2.848,-0.639 3.225,-3.182 1.796,2.445 -1.192,5.372 0.684,3.116 -1.993,2.784 1.821,1.106 1.832,-1.108 1.598,0.905 0.428,2.233 0.781,0.967 1.159,-3.321 1.771,0.056 3.794,2.492 1.229,2.923 -0.149,3.257 3.398,-1.541 2.146,1.193 2.452,6.122 3.617,-0.24 -0.725,-3.322 2.631,-1.008 1.043,1.209 2.083,-2.165 3.105,2.112 -0.599,3.732 1.064,2.884 2.649,1.509 0.33,-3.223 2.324,0.36 0.268,-1.374 -0.988,-1.605 1.995,-3.531 6.037,-9.056 3.977,5.334 0.871,5.626 1.78,-4.406 2.68,-1.748 1.748,2.659 0.817,4.673 2.091,5.853 1.684,13.534 -0.395,5.167 2.955,0.434 1.461,2.537 -0.645,2.114 -1.663,0.738 0.067,4.499 4.035,3.553 2.304,-1.444 2.905,1.855 -0.172,5.237 0.772,7.974 3.909,-0.541 0.621,-4.111 2.226,-0.419 4.392,-6.796 5.108,-1.429 3.444,1.637 -0.339,7.256 2.606,-2.341 3.633,-5.342 2.655,-2.497 4.367,3.159 2.045,-1.429 1.525,1.016 -1.435,3.928 -1.127,2.708 -2.756,2.697 0.973,3.119 4.943,-0.008 2.382,1.204 -0.814,6.06 -1.396,4.922 2.567,2.097 -0.24,3.951 -1.991,3.248 1.056,5.92 5.749,2.222 4.185,2.907 4.005,4.236 0.312,3.477 2.953,1.366 1.457,-3.576 2.333,0.966 2.076,3.995 1.971,0.26 1.693,0.158 0.276,3.887 -1.531,2.491 1.65,1.698 4.017,1.107 2.45,-5.03 2.103,0.512 2.733,5.051 2.686,-0.547 4.714,3.092 -0.294,1.129 -4.442,-3.338 0.488,9.848 -0.779,0.152 0.016,5.664 3.074,2.29 -0.563,4.996 0.412,3.928 1.925,4.249 3.139,3.116 9.419,5.427 6.388,3.366 12.315,3.318 1.445,0.012 3.459,0.031 2.8,-0.774 1.191,-0.766 6.741,-0.557 0.41,-5.274 0.366,-4.907 2.358,-6.159 3.563,-4.635 3.339,-3.431 4.004,-1.11 7.851,-3.237 10.969,-4.451 3.431,4.514 -0.606,2.141 -4.095,5.339 1.287,6.263 -1.652,8.309 2.311,6.159 4.789,2.942 2.327,0.286 1.302,-3.931 2.383,-1.837 4.241,0.519 0.438,-6.438 5.285,-1.376 9.55,3.613 -0.114,-3.926 -0.013,-3.997 4.653,-0.408 -4.633,-9.468 -1.294,-4.367 0.789,-3.151 5.572,-4.765 1.415,-5.057 3.68,0.31 1.345,-1.502 -2.154,-5.998 -0.789,-7.004 3.695,-0.41 3.458,-3.293 2.243,8.728 -0.165,4.395 -1.45,3.205 -2.748,3.22 3.45,0.899 7.697,-3 3.032,8.472 -1.189,6.652 1.798,0.881 2.816,-1.421 2.857,4.05 8.293,-3.996 5.388,4.578 4.427,7.099 0.674,-4.675 -2.061,-3.791 4.298,-6.454 2.303,2.655 -0.835,5.771 6.955,1.482 1.827,-2.438 5.386,1.2 4.701,3.419 -0.324,10.048 2.313,6.323 1.659,-9.039 -1.002,-2.451 0.241,-7.94 2.561,-3.809 2.896,5.034 3.656,-0.719 2.109,-4.5 3.647,0.562 2.236,1.602 2.39,-0.776 -2.37,-5.322 -0.02,-9.045 4.52,-2.501 3.92,-7.297 0.08,6.174 4.35,2.773 2.58,-9.676 3.17,0.557 1.37,5.04 -1.4,6.249 -0.04,5.155 -1.09,12.199 2.99,1.243 0.71,-3.775 1.51,-2.162 0.97,-0.257 -0.57,5.606 2.45,0.35 1.72,-1.277 3.68,2.853 4.61,1.474 0.13,1.72 1.58,0.976 3.09,0.536 0.1,-2.223 2.22,-0.126 -0.62,2.489 0.37,3.312 -0.58,2.238 2.24,2.652 2.05,-1.581 2.36,2.604 0.41,2.406 -0.79,3.947 0.24,5.354 0.85,3.101 5.52,0.971 3.63,-1.143 5.94,-2.34 -2.83,-4.05 0.41,-4.985 2.64,-5.423 1.29,-1.329 6.66,-0.597 7.95,0.2 3.43,-9.562 -0.17,-9.094 -2.21,-4.848 3.59,-8.727 5.14,-0.478 5.52,-3.088 1.38,-3.899 4.63,-3.516 -1.42,-4.251 3.9,-2.689 6.6,5.714 8.34,3.458 11.25,2.299 1.56,4.354 -2.31,4.875 6.21,3.949 2.35,2.708 8.16,1.104 3.36,-2.699 7.07,1.552 2.74,5.336 5.35,2.621 1.88,-2.327 3.56,2.887 6.76,-2.502 0.61,-2.909 -4.8,-6.135 2.29,-9.795 6.51,-13.453 3.48,-3.723 1,-3.294 -4.51,-2.01 -2.59,-1.33 -1.23,-3.533 0.87,-4.517 5.25,-7.333 4.47,-1.63 2.77,1.283 0.3,-0.674 1.45,-5.138 2.89,-4.267 4.3,2.832 3.54,-2.066 1.69,-2.77 2.95,1.302 1.18,-7.16 6.31,2.333 6.91,-1.306 1.69,-6.966 1.71,4.195 6.21,-0.029 0.29,-10.064 1.77,0.803 1.65,6.531 1.67,-1.228 -1.2,-2.009 -0.29,-0.484 -0.51,-5.277 2.44,-1.619 0.28,-9.323 -0.32,-4.369 -2.1,0.349 -0.01,-5.155 2.18,-1.348 2.2,2.574 1.04,-2.009 2.06,-1.333 2.43,3.932 3.91,-1.549 12,-1.722 0.86,-5.459 2,0.406 4.64,-4.081 0.29,-7.721 1.25,-3.391 -0.52,-5.394 2.71,-0.493 0.83,-6.621 3.15,2.534 1.34,-5.139 2.84,0.641 1.16,-4.89 2.11,6.153 2.68,-4.236 1.55,-4.378 3.34,1.16 2.16,3.079 2.2,-5.688 3.53,-3 4.61,-4.83 -1.96,-6.558 1.93,-9.539 6.02,7.265 4.91,1.725 2.92,10.485 1.35,5.208 2.3,-5.956 41.12,8.371 6.3,-3.336 3.79,-6.117 10.08,-1.008 -3.69,-6.911 -0.76,-4.376 4.19,-1.799 -2.99,-7.295 -2.45,-28.325 -0.33,-17.207 -1.99,-4.337 -1.78,-2.076 6.75,0.332 1.21,3.893 1.78,2.579 3.06,1.847 3.97,-3.469 4.4,3.202 5.14,5.634 3.93,6.535 6.87,6.303 11.9,2.497 8.02,9.612 9.45,0.127 10.88,7.21 6.37,-0.425 7.54,-5.157 5.57,-4.788 6.97,-14.567 5.63,-6.61 -2.85,-4.089 -1.71,-8.685 1.18,-3.236 2.2,-4.274 3.7,1.776 1.96,8.053 5.45,2.299 0.1,2.26 -1.8,-0.11 -0.31,9.084 -1.7,0.096 1.69,6.021 2.65,4.769 7.98,6.153 5.72,-1.233 21.04,5.73 2.17,-3.022 3.74,-0.732 1.95,5.897 9.4,7.186 1.83,5.259 2.95,0.813 2.28,1.539 0.76,5.668 -3.78,-1.642 3.67,15.192 2.68,0.539 4.22,3.829 -3.39,5.355 0.3,8.287 4.4,7.701 2.46,4.312 5.62,10.501 13.32,9.271 11.5,4.318 6.07,3.254 -0.26,-4.617 3.35,-3.845 10.47,3.227 9.44,11.814 5.51,12.71 6.44,5.675 3.19,8.855 2.21,6.767 4.68,7.52 10.38,2.824 16.81,7.323 18.64,4.902 9.49,-2.548 3.89,-3.427 2.01,-5.763 4.65,1.443 5.25,2.603 4.46,0.197 16.12,-4.076 7.36,5.793 9.16,0.835 8.93,-2.633 6.82,2.052 3.8,-0.45 -0.22,-6.611 -1.35,-8.543 6.9,-1.863 8.32,8.699 -4.35,7.448 0.89,2.181 4.98,-5.041 7.42,2.551 4.62,9.96 4.26,-3.589 17.84,8.31 4.81,-6.789 7.32,2.523 2.63,-10.283 12.14,-0.96 10.32,-4.037 12.69,0.599 10.47,2.601 6.5,4.72 5.59,10.91 -1.08,6.478 -2.58,4.029 -1.88,0.912 -2.14,6.23 0.42,1.577 0.92,1.358 14.74,8.472 0.37,1.238 -0.57,1.435 -0.69,0.233 -0.82,-0.278 -0.27,-0.561 0.36,-0.551 -9.87,-5.396 -5.77,-3.153 -1.29,0.232 -1.09,2.743 2.03,6.749 -1.86,0.582 -1.5,1.678 -0.1,2.523 2.34,6.608 1.9,-0.532 3.22,5.375 12.67,8.867 5.93,1.493 29.62,13.569 25.93,-1.969 18.01,-4.499 4.73,-5.972 6.93,-3.054 6.21,-4.662 1.19,-5.284 -1.89,-5.429 -0.71,-2.537 2.67,-2.475 3.9,-1.9 4.02,2.545 -1.42,7.721 2.51,3.846 11.16,3.492 2.72,4.853 -0.62,3.563 2.67,12.031 4.12,4.238 6.61,2.828 7.86,2.529 5.03,0.418 3.56,0.295 4.4,-0.896 13.05,1.538 8.83,-3.96 11.36,-1.861 15.09,-4.356 -2.34,-14.418 6.92,-16.86 4.42,-1.876 1.99,-5.642 0.4,-10.21 5.37,-6.594 -4.19,-6.705 3.21,-8.372 2.15,2.338 3.25,3.729 -1.73,-6.673 1.66,-3.96 8.18,-10.551 7.54,-7.859 3.72,-2.873 13.82,-0.298 9.02,6.496 2.93,2.201 1.13,-5.004 3.75,-3 6.71,4.365 0.72,5.49 0.05,10.569 13.88,11.305 2.19,5.374 3.16,1.541 7.65,0.424 3.73,-1.623 3.97,-4.135 5.51,-3.09 2.34,-1.584 2.87,0.198 0.54,3.416 2.67,-1.835 0.79,2.463 1.63,0.74 1.14,-1.28 0.84,-2.316 2.61,-2.085 4.64,1.015 1.7,2.735 2.92,-0.58 1.82,1.961 1.41,1.509 0.85,-0.767 2.13,-0.04 1.83,1.524 1.49,3.205 3.7,3.685 5.28,0.625 5.2,5.49 1.85,4.476 0.81,5.531 -0.65,3.746 3.48,8.282 1.65,5.711 1.98,3.975 -0.26,3.212 -1.18,1.952 0.75,1.171 1.47,-0.068 0.43,1.123 -1.35,10.546 -1.44,2.594 -1.96,2.482 -0.96,2.362 -1.49,0.552 -1.06,1.279 0.48,1.654 0.14,1.587 1.28,0.709 1.44,1.028 2.18,0.816 1.99,1.005 0.15,2.178 3.34,1.104 2.81,1.996 2.07,5.665 0.32,2.864 0.38,2.26 4.64,-0.246 6.2,1.051 0.25,2.26 4.25,0.254 3.42,3.31 1.75,3.595 -0.13,0.876 1.76,2.065 -1.98,1.349 0.57,3.138 4.51,4.972 4.14,8.69 1.51,3.859 3.18,2.48 3.93,2.769 4.51,-6.433 3.02,0.245 0.54,2.542 3.73,0.137 1.38,-1.846 -1.42,-4.533 1.22,-6.838 2,0.065 -0.06,4.632 4.27,1.028 0.41,-4.685 7.82,0.869 0.58,2.784 -2.64,2.541 1.84,3.125 -0.61,3.032 -4.48,8.27 -5.75,7.475 -1.27,7.41 2.57,2.681 3.56,-0.56 -3.14,2.881 4.51,4.633 1.37,1.73 3.64,7.889 8.69,10.379 0.09,0.274 2.14,6.638 -0.29,4.547 -0.49,2.613 -2.92,3.623 -2.89,3.142 1.37,8.823 2.97,2.309 4.1,3.32 2.97,4.786 1.96,14.209 3.27,3.879 -3.63,7.675 2.59,4.479 4.34,1.156 1.97,2.196 0.22,3.034 -2.25,7.479 3.76,5.428 3.73,3.295 1.24,-0.66 3.21,-1.697 5.5,-3.082 8.93,1.299 -0.56,1.922 -8.61,-0.999 -2.98,2.465 -2.53,1.206 0.73,5.955 -1.28,2.331 -2.6,2.577 -1.97,1.236 -3.67,5.99 -1,4.047 2.94,7.757 4.05,2.851 -0.28,1.134 -1.51,1.608 -0.86,2.33 0.45,1.115 9.11,6.284 4.64,3.447 8.84,4.812 7.13,1.174 7.33,-0.948 6.05,2.744 5.93,1.149 3.94,5.275 11.17,-1.006 4.07,11.032 11.15,4.391 8.28,6.804 6.65,2.168 2.67,-6.485 7.24,3.591 5.22,9.242 6.82,-2.69 28.6,0.823 2.47,5.085 4.71,-4.727 3.72,-7.845 5.6,-5.544 12.05,2.808 9.11,4.661 0.87,-6.851 5.29,-6.157 0.75,-10.025 -2.24,-5.647 1.99,-4.9 6.08,-1.954 9.12,2.93 17.68,4.86 4.16,5.097 2.93,-6.339 7.34,0.798 0.58,-5.681 -3.75,-4.806 1.05,-5.134 3.87,3.808 8.79,2.953 7.2,-1.941 8.81,-0.65 9.55,1.007 9.46,3.179 7.27,2.373 8.46,-13.14 4.34,-1.668 6.64,-2.856 7.64,2.21 7.42,8.475 4.72,-2.691 5.97,-5.308 -5.44,-6.931 -3.11,-6.466 1.18,-1.316 1.25,1.672 1.89,-1.732 2.13,-2.016 2.94,1.11 3.63,1.162 -0.56,-1.608 -4.48,-7.295 3.21,-5.713 6.84,2.112 8.56,-3.132 7.47,-3.326 5.63,-5.554 -4.28,-3.13 1.1,-6.336 5.21,-1.741 3.34,6.874 4.04,3.101 5.34,-1.865 5.11,1.79 2.46,-2.146 -0.37,-3.862 8.43,-5.308 -5.56,-14.41 2.1,-4.33 2.81,-3.197 7.27,-2.718 4.31,2.257 -1.45,10.131 -3.2,6.345 4.2,0.926 3.59,4.927 -1.31,9.812 1.6,7.909 -2.45,6.627 -2.72,0.981 -0.4,2.495 1.66,2.558 0.26,3.572 2.62,7.082 11.47,5.42 3.52,3.432 4.44,1.077 2.17,2.853 7.36,3.455 4.91,6.585 10.9,3.26 1.4,-2.612 5.91,-1.462 1.44,-5.022 6.63,-3.726 6.57,-2.819 8.82,-2.974 6.16,0.566 4.49,3.384 4.39,1.123 2.1,-0.49 1.99,-0.13 1.55,0.867 0.34,1.494 -0.2,1.75 -1.78,1.062 -1.99,0.378 -2.76,1.762 -3.24,4.468 -4.35,6.18 -2.81,5.998 -1.24,4.926 -4.16,6.357 3.63,7.472 2.06,3.868 3.52,6.632 0.5,1.076 -0.53,1.086 -1.38,0.257 -0.7,-0.731 -0.12,-1.131 -0.97,-1.822 -3.26,-6.178 -2.17,1.417 -10.67,7.72 -1.34,1.476 -0.88,2.256 0.13,5.255 0.96,4.355 0.6,2.72 -1.27,1.158 4.69,7.477 6,6.07 6.26,-0.45 9.52,3.993 7.06,1.195 10.34,5.902 0.19,3.489 5.1,0.058 2.93,-1.364 1.4,-3.973 2.02,-5.014 3.59,-0.26 6.62,1.093 8.07,1.331 3.43,2.16 4.77,0.141 1.84,1.837 5.42,-0.654 2.81,2.038 2.38,4.955 -0.3,1.579 1.83,1.053 1.97,1.291 2.61,-0.858 5.2,1.896 1.3,2.839 -0.59,7.998 0.59,4.946 5.03,5.607 4.92,-2.075 2.44,-2.243 1.63,1.176 1.27,4.962 1.64,-3.104 0.51,-3.856 -0.02,-3.668 1.57,-2.333 2.55,-2.367 1,-2.124 3.21,-3.572 4.28,-3.223 3.11,2.626 0.96,2.816 2.04,1.969 3.16,1.139 3.16,1.212 2.89,4.919 -1.69,3.729 0.51,2.937 5.89,4.369 5,5.118 2.76,7.275 4.25,4.924 2.19,3.025 2.14,2.644 3.94,2.523 7.01,2.532 7.4,-1.314 7.8,3.604 1.74,1.474 4.23,0.531 11.42,4.037 10.73,2.534 4.19,2.206 4.34,0.897 2.63,-0.359 2.14,-2.012 1.05,-1.864 -0.89,-2.521 -0.24,-3.112 4.71,-2.081 2.21,-3.996 5.67,-3.344 2.48,-0.701 9.11,4.733 4.96,2.168 2.08,3.159 1.82,2.196 2.03,4.928 -1.06,1.77 -0.13,2.929 -0.85,0.878 -3.77,-1.469 -3.78,-0.409 -1.54,0.971 -0.23,0.147 -1.55,0.761 -3.46,0.944 -2.14,3.64 -0.49,1.204 2.16,6.447 3.99,1.773 -1.03,3.912 6.5,3.949 -0.65,11.258 3,9.817 4.94,7.242 -1.87,6.755 -3.36,4.618 -2.69,2.19 -0.13,3.997 4.23,1.487 1.02,1.795 -1.28,2.102 -1.11,3.341 0.6,3.979 1.03,2.305 0.62,3.8 1.46,2.601 0.97,0.764 -0.34,1.241 -1.06,3.233 -0.47,1.01 -0.76,0.11 -0.87,6.222 1.67,9.559 1.55,4.228 4.02,3.8 8.7,15.099 4.92,4.21 4.35,3.28 8.21,2.79 1.09,0.65 7.45,4.45 9.9,4.9 2.64,0.29 17.55,0.66 100.46,55.95 2.93,0.64 0.87,0.95 0.09,1.23 -0.67,1.23 -1.08,0.79 -1.33,-0.26 -0.43,-0.89 -3.38,-2.29 -92.29,-51.2 -0.94,1.6 -4,-2.31 -3.39,-0.98 -3.76,-0.19 -5.31,1 -3.57,1.3 -6.06,3.84 -7.69,5.06 -5.29,3 -2.83,2.51 -4.97,1.28 -4.47,-2.01 -7.24,2.31 -9.5,-2.05 -7.12,2.44 -5.57,5.39 -2.6,6.41 -6.78,9.15 -3.6,-0.43 -8.57,4.65 -4.62,6.12 -4.36,-0.4 -2.64,3.16 -1.05,1.63 -1.1,2.63 -0.93,3.81 -0.69,4.22 4.75,2.33 3.52,1.95 -2.29,9.13 -0.72,8.62 -8.42,1.1 -14.1,8.82 -1.31,3.47 -2.02,3.62 -3.82,1.83 -2.57,0.23 -10.79,0.94 -3.13,4.72 -1.86,12.26 -0.79,6.07 -2.47,18.52 -0.7,12.68 2.89,14.52 6.24,10.21 6.82,4.42 5.59,-0.47 1.35,3.41 -1.49,2.26 0.26,1.6 2.83,4.24 4.31,2.91 2.53,3.19 1.74,3.65 1.77,3.71 2.45,8.04 5.11,14.92 4.54,4.84 5.31,2.99 4.67,1.85 3.05,0.01 h 1.14 l 12.97,-4.03 3.81,-1.18 0.79,1.23 7.14,-2.31 1.9,2.79 -8.14,2.74 0.67,2.72 -1.22,1.83 -1.58,0.49 -1.8,-0.75 -1.03,-1.39 -12.9,3.45 -2.28,8.73 -0.1,1.01 -1.04,15.68 1.57,9.52 2.38,9.89 2.08,6.81 4.67,1.84 3.24,3.39 5.19,3.05 14.59,4.24 5.36,0.62 2.92,-2.59 3.51,-1.97 2.83,0.55 2.49,2.58 1.37,2.01 3.66,-4.15 2.08,-1.49 -0.07,2.31 3.03,-2.53 1.21,1.4 -0.43,1.47 -0.85,1.26 -2.86,1.94 -1.28,1.53 0.74,0.86 -0.04,1.06 -0.95,0.69 -1.69,2.04 2.19,-0.18 0.78,1.51 0.44,2.04 -0.19,0.61 -4.7,-0.71 0.41,1.5 -0.34,0.83 -1.27,0.96 -2.13,0.33 -0.64,1.2 -0.19,1.77 -1.19,3.03 -2.1,1.43 -0.86,0.6 0.1,0.46 0.41,0.55 -0.64,0.95 0.36,0.37 -0.62,0.56 -1.7,0.71 -1.6,0.13 -1.43,0.62 0.54,2.39 0.71,1.19 1.18,0.59 0.28,2.06 1.03,3.59 -4.23,2.36 -5.75,2.74 -0.62,0.67 -1.41,2.06 -0.78,5.97 -0.41,4.7 -0.41,4.2 -0.43,9.61 -0.23,5.88 0.18,5.59 1.22,7.65 1.93,5.1 1.53,2.65 2.08,2.16 1.3,0.94 1.23,0.42 2.86,-0.75 0.93,-1.13 0.87,-0.1 0.52,0.91 -0.31,1.43 -0.29,2.05 1.96,0.98 3.29,0.16 5.4,1.44 2.63,-0.88 1.57,-1.19 1.17,-1.48 1.58,-0.56 1.44,0.32 1.33,0.85 -0.18,0.96 -0.3,1.67 2.62,3.55 1.84,2.25 1.77,1.84 0.71,1.67 -0.63,0.8 2.02,2.78 2.3,0.9 0.79,1.35 1.12,2.55 1.84,3.41 3.2,1.96 1.57,0.77 1.02,1.63 1,1.77 2.97,2.62 1.09,1.27 0.43,1.87 -0.42,2.39 0.99,1.52 3.04,1.83 0.57,2.89 -3.62,0.96 -2.32,1.1 -3.7,1.73 -2.92,-3.76 -2.51,0.93 -2.78,4.24 -1.15,4.87 -0.32,3.71 1.48,5.68 0.95,1.8 0.19,3.74 1.18,2.65 1.8,1.98 2.66,5.45 -0.21,5.68 -3.75,2.47 -2.65,4.04 -3.71,3.89 -2.78,1.35 -2.25,2.24 -6.78,1.94 -6.47,-0.19 -1.02,1.45 -2.31,0.65 -2.23,-0.06 -23.04,21.97 -1.58,10.59 -6.84,4.83 -1.42,-1.8 5.27,-6.31 1.26,1.15 1.41,-9.15 22.6,-22.06 -3.34,-19.61 -0.86,-1.2 -8.55,1.07 -0.57,-0.62 -8.53,0.84 -9.63,1.48 -2.81,0.69 -5.59,2.71 -12.37,7.5 -5.06,2.26 -3.26,1.09 -2.81,0.92 -4.32,1.03 -9.21,1.22 -1.47,0.31 -0.53,-0.21 -2.27,0.53 -6.81,1.95 -8.54,4.17 -7.54,5.19 -7.88,5.46 -2.36,1.8 -3.98,3.21 -3.08,3.01 1.37,1.93 -4.94,4.26 -3.18,3.68 -9.94,13.59 -4.88,8.45 -7.52,13.87 -6.18,13.3 -6.38,15.2 -7.7,23.13 -3.65,12.77 -3.63,12.78 -4.23,17.55 -2.49,14.34 -3.01,17.98 -1.83,15.38 -1.53,12.89 -1.02,13.58 -0.4,12.42 -0.15,4.71 0.64,-0.06 -0.54,21.23 -0.29,20.09 1.22,34.83 1.84,31.22 3.06,25.77 0.79,6.74 2.28,15.07 0.76,4.99 1.49,9.17 0.81,1.66 2.16,12.52 1.91,10.92 4.1,13.5 -0.6,2.5 0.98,3.83 0.36,1.66 0.57,-0.08 0.06,0.85 -0.53,0.05 0.04,0.89 -0.74,5.69 -0.61,5.39 0.84,2.65 0.79,14.76 0.71,4.66 1.78,10.49 4.72,26.89 2.56,12.51 2.28,16.9 1.91,7.69 0.62,2.66 1.24,6.94 3.94,17.59 3.47,2.59 1.52,2.37 0.16,3.06 -0.8,5.81 0.28,5.67 1.52,2.72 0.11,1.59 -3.79,3.13 -6.28,5.77 -1.32,2.02 -1.03,1.45 -1.79,2.63 -2.56,2.52 -3.5,2.1 -5.17,3.08 -2.49,1.42 -2.21,1.26 -5.16,2.05 -5.74,1.29 -3.92,0.83 -1.8,0.8 -1.57,0.62 -6.2,3.02 -9.29,4.53 -7.21,3.55 -0.64,2.04 0.37,3.39 1.04,3.86 -0.65,1.5 -0.53,0.55 -1.88,2.48 -0.78,9.95 -0.1,1.3 1.84,0.98 1.68,0.18 0.99,0.81 -0.5,1.56 -0.2,1.33 0.33,1.5 1.53,3.37 1.55,3.31 1.43,2.3 1.94,1.88 2.01,1.22 2.37,1.11 3.07,0.55 4.01,-0.14 0.01,0.92 -4.49,0.06 -2.26,-0.4 -2.78,-0.99 -2.03,-1.21 -2.18,-2 -2.12,-3.22 -3.48,-7.57 -1.43,-1.71 -1.8,-1.18 -0.45,0.2 -1.42,-0.85 0.05,-1.21 1.04,-0.51 0.88,-11.34 -7.72,-1.55 -1.11,-0.82 -1.99,-0.34 -1.78,0.1 -0.61,0.72 -0.23,1.08 -3.63,-0.2 -1.33,0.05 -0.86,-1.44 0.85,-1.24 1.36,-0.03 0.82,-0.95 0.22,-1.11 -0.39,-1.17 -1.55,-1.58 -0.08,-0.42 -2.4,-2.34 -0.9,-0.22 -1.19,1.34 -2.58,-1.81 -0.36,-1.07 -5,-4.18 -3.92,-3.11 -1.33,0.9 -1.27,-2.1 -15.31,-12.57 -4.81,-4.37 -11.12,-8.32 -8.98,-5.49 -2.73,-1.53 -0.14,-0.08 -3.1,-1.37 -4.81,-2.64 -7.93,-3.55 -23.53,-11.6 -6.73,-3.78 -0.46,-0.26 -0.5,-0.26 -3.16,-1.67 -6.42,-3.37 -3.03,-1.39 -9.9,-3.15 -2.75,-1.09 -0.8,-0.32 -4.07,-2.54 -2.26,-1.46 -4.41,-2.34 -5.17,-3.58 0.48,-0.89 -5.17,-3.01 -3.33,-2.15 -4.93,-2.4 -1.99,-0.97 -3.61,-1.31 -0.37,-0.14 -1.21,2 -11.75,-5.29 -7.53,-2.74 -6.42,-2.12 -0.78,-0.26 -6.74,-1.87 -9.29,-1.87 -10.5,-1.54 -10.47,-1.16 -6.75,-0.52 -11.13,-0.44 -7.41,0.45 -12.72,1.34 -3.61,0.57 -4.91,1.04 -5.1,1.98 -6.04,3.16 -3.95,3.1 -1.58,2.26 -0.98,2.43 -2.56,0.43 -3.81,1.16 -3.6,1.2 -0.37,0.61 -0.58,0.58 -1.4,1.41 -6.27,3.43 -2.82,-0.69 -2.46,0.11 -3.04,0.81 -2.99,1.94 -3.35,2.16 -7.62,6.09 -3.42,2.79 -4.3,3.51 -0.23,2.75 -0.88,1.51 -5.72,1.31 -1.54,-1.05 -0.35,-1.86 0.72,-1.87 -5.01,-3.3 -3.77,-1.75 -3.85,-1.22 -0.99,-0.41 -4.73,-0.73 -9.01,-0.93 -14.14,-1.28 -8.84,-0.99 -4.15,-0.12 -4.72,0.26 -19.35,3.03 -10.63,3.63 -9.66,6.79 -1.25,3.24 -4.65,6.19 -6.11,8.01 -0.09,5.58 -0.65,1.82 -2.36,0.29 -1.96,1.05 -3.31,1.29 -5.24,3.94 -3.74,4.05 -1.35,4.26 0.49,4.08 5.66,5.09 0.48,7.95 3.46,3.01 -0.03,3.96 -4.4,0.66 -4.2,0.77 -4.01,-3.9 -10.03,-1.39 -13.28,-0.69 -12.26,1.21 -10.23,1.04 -7.11,0.57 -10.27,-2.6 -5.78,-2.86 -6.45,-1.11 -3.93,0.31 -2.74,1 -3.21,2.83 -0.22,-3.02 -1.07,-3.69 -11.87,-15.63 -14.88,-18.91 -12.91,-17.43 -11.35,-17.36 -3.63,-5.36 -5.95,-8.57 -1.32,-3.24 -5.81,-10.88 -12.33,-25.99 -0.5,-1.07 -2.18,-4.63 -7.39,-12.98 -4.32,-6.52 -13.3,-20.28 -14.67,-21.29 -8.19,-11.71 -4.37,-5.92 -2.2,-0.64 -1.82,-1.01 0.99,-1.36 -13.81,-18.58 -0.44,-0.63 -8.48,-10.95 -5.67,-7.24 -2.85,-3.18 -6.04,-5.95 -4.33,-3.94 -17.98,-14.98 -6.27,-4.36 -7.43,-4.16 -4.44,-1 -12.75,-0.77 -3.77,-0.23 -1.53,2.22 -2.63,1.01 2.69,4.54 0.58,-1.07 2.35,1.88 -0.72,1.87 -2.53,0.97 -2.78,-3.87 -1.8,-3.85 0.79,-2.93 -1.71,-1.42 -2.18,-1.41 -1.84,-1.07 -2.71,-1.27 -2.11,-0.91 -2.3,-0.75 -7.33,-2.38 -1.01,-0.33 -3.91,-0.34 -13.79,-1.21 -2.82,0.1 -0.38,0.01 h -0.14 l -0.4,0.02 -11.05,0.67 -2.95,1.25 -1.6,1.64 -0.83,2.29 -0.01,1.1 0.6,0.66 1.19,0.59 0.52,0.81 0.23,0.97 -0.56,2.1 -0.68,1.2 -1.23,3.41 -3.54,-0.26 -1.17,-4.34 -10.23,-0.88 -11.34,-0.77 -14.05,-1.32 -2.67,0.72 -9.04,3.1 -6.98,4.49 -6.17,5.23 -1.14,2.11 -0.58,2.44 0.51,4.11 -7.17,9.54 0.1,2.95 -1.39,3.4 2.55,1.72 6.97,9.26 3.07,6.79 0.84,4.6 -0.62,4.54 -2.7,4.12 -7.32,7.15 -2.78,3.43 -2.06,4.38 -0.8,7.64 2.44,0.79 1.41,1.9 -1.29,3.05 -2.07,1.26 0.71,23.18 -1.36,8.58 -3.55,7.75 -6.62,7.36 -7.77,7.4 -10.64,7.88 -12.02,5.88 -12.86,4.33 -9.75,-0.44 -9.82,-4.29 -7.65,-5.22 -7.06,-5.69 -6.22,-5.99 -15.63,-24.11 -7.56,-13.24 -5.56,-16.33 -4.38,-15.84 -2.43,-14.43 -1.11,-0.04 -1.48,-1.01 -0.69,-1.41 0.2,-2.15 1.28,-1.35 2.25,-0.22 3.4,1.8 5.1,2.64 8.65,4.31 1.44,-2.93 -2.64,-1.46 0.06,-1.39 0.52,-0.33 9.54,4.55 -0.68,0.97 -2.42,-0.16 -1.13,2.48 8.64,4.06 1.24,-0.67 5.43,-10.31 3.87,-7.68 1.54,-4.67 -6.99,-3.05 -8.58,-3.19 -13.01,-5.19 -3.28,-3.07 -0.46,-2.7 3.26,-5.26 3.48,-8.35 2.11,-5.12 1.94,-4.85 1.01,-0.59 1.58,0.91 -6.69,17.48 -2.21,4.71 0.78,3.89 3.97,2.87 15.85,6.15 3.56,-1.71 1.1,0.55 2.81,1.42 0.67,-1.11 0.61,-0.2 2.45,-1.82 7,-0.02 -0.04,-1.42 -5.63,-0.08 0.08,-2.04 13.68,0.17 0.03,-2.37 2.69,-0.01 -0.06,-4.39 -0.09,-6.94 -0.25,-8.18 -11.71,0.62 -12.87,0.2 -1.25,-8.05 -0.21,-1.34 -1.74,-7.17 -0.6,-0.77 0.09,-0.74 0.49,-0.49 1.69,-0.28 1.56,0.04 3.08,0.55 6.37,12.96 30.09,-1.35 0.1,0.73 5.49,-0.48 0.38,-13.3 0.11,-4.76 1.13,-5.54 -0.51,-3.17 -13.96,-3.66 -2.49,-18.77 5.13,-1 0.19,15.27 0.77,0.34 21.02,3.09 0.85,-0.2 3.06,-3.95 2.18,-4.07 -1.17,-0.73 -8.05,-4.78 -0.42,-0.18 -0.3,-0.17 -0.55,0.37 -0.48,-0.26 0.02,-0.7 7.03,-11.53 0.81,0.32 -1.15,2.3 12.84,4.8 3.61,-2.67 2,-3.64 0.54,-2.55 -1.36,-1.21 -11.78,-5.69 20.02,-41.92 -10.95,-6.31 -8.2,13.9 -24.51,41.07 -0.9,0.31 -3.94,-0.93 -6.37,-3.86 14.67,-24.79 1.85,1.08 1.5,-2.8 8.71,-15.23 16.29,-27.34 -4.2,-2.59 -16.02,-8.88 -16.98,27.72 -0.91,1.87 -7.26,11.91 1.29,0.97 -16.39,28.79 -1.44,8.37 -4.18,33.8 1.05,0.01 0.34,0.74 1.22,0.23 -0.13,1.3 -2.26,2.19 -1.29,-0.17 0.15,2.61 0.29,0.73 -0.21,0.59 -2.99,0.79 -2.86,0.18 -1.16,-0.32 0.28,-1.42 1.05,-3.02 2.04,-17.29 2.18,-18.81 1.03,-10.35 -29.68,-0.06 -4.5,1.76 -6.72,0.55 -10.15,3.43 -1.47,0.58 16.29,43.68 -1.05,0.91 -1.43,-0.16 -0.58,-0.76 0.01,-0.91 0.44,-0.96 -14.96,-40.49 -1.65,-4.41 -1.14,-3.2 -0.79,-2.22 0.09,-4.26 -5.63,-3.41 -1.47,-1.48 0.58,-2.22 1.66,-0.7 5.16,0.88 2.24,-2.96 0.1,-2.48 -0.04,-2.94 -0.16,-3.64 -0.39,-1.52 -1.05,-0.72 0.83,-2.31 0.78,0.39 1.58,7.03 44.36,-10.7 -1.89,-8.07 -3.49,-13.55 -4.29,-17.26 0.35,-2.07 5.41,-9.18 -1.7,-1.01 -19.99,-11.8 h -0.56 l -0.53,0.43 -6.96,8.18 -2.03,3.78 -15.59,49.12 0.97,0.56 0.53,0.9 0.13,1.02 -1.01,3.57 -3.54,-1.17 17.82,-56.75 7.47,-10.75 -0.68,-1.19 0.02,-1.61 1.59,-0.95 1.83,-0.05 5.73,-8.23 8.11,-10.93 1.02,-2.21 -1.12,-3.45 4.04,-2.31 0.8,-4.47 0.33,-4.64 -0.47,-3.75 -0.96,-3.21 -2.96,-6.53 -4.2,-6.21 0.73,-1.18 -0.62,-3.53 0.09,-1.37 -3.86,-4.46 -8.53,-10.15 -8.48,-9.43 -11.32,-12.11 -12.6,-13.45 -9.39,-9.24 -11.24,-10.52 -17.32,-17.86 -17.71,-15.95 -11.14,-10.1 -13.59,-12.16 -8.93,-8.39 -5.39,-4.44 -4.38,-1.34 1.43,-1.48 -0.93,-0.99 -6.32,-5.39 -8.67,-5.32 -41.71,-22.21 -6.86,-3.58 -18.48,-8.81 -16.53,-7.03 -10.09,-3.68 -11.1,-3.51 -14.38,-3.35 -27.54,-5.02 -29.94,-4.14 -14.67,-1.57 -12.4,-0.62 -2.66,0.99 -4.25,-0.19 -2.74,-0.32 0.15,-2.69 -8.51,-1.71 -19.13,-3.95 -13.61,-0.64 -18.26,0.36 -12.14,0.46 -16.79,1.39 0.07,0.61 -11.52,0.96 -16.3,2.08 -5.54,1.13" vector-effect="none"/>
        <svg:path style="fill:#000000;fill-opacity:1;fill-rule:evenodd;stroke:#ffffff;stroke-opacity:0" inkscape:connector-curvature="0" id="path82" d="m 1750.35,1867.57 0.71,-3.64 -1.47,-3.31 1.62,-1.2 2.48,0.43 1.74,2.81 -0.19,1.76 -1.57,2.88 1.19,1.56 1.6,0.79 2.44,-1.16 1.66,2.52 -3.91,3.82 -1.87,0.68 -2.02,2.43 -2.62,3.3 -0.68,3.7 -3,0.13 -6.38,9.04 -5.01,11.7 2.45,3.78 4.29,6.4 0.58,3.17 -1.67,1.53 -3.78,2.71 -4.04,5.53 -4.24,-1.98 -2.36,0.65 -1.47,0.88 -0.88,1.08 -0.69,1.48 0.01,0.72 0.24,0.83 2.58,1.81 0.14,0.07 4.86,2.38 2.04,-3.61 1.35,0.8 -3.05,5.37 -5.26,-3.45 -5.17,6.32 2.06,6.4 5.22,14.01 1.14,-0.19 2.33,-3.48 0.95,0.89 2.08,2.92 -0.47,3.16 -0.49,2.35 1.81,1.81 -0.17,3.78 -3.19,0.33 19.25,56.24 -1.98,0.74 -19.31,-56.24 -1.72,0.45 -2.81,0.63 -2.23,0.08 -1.45,0.13 -1.62,-0.92 -0.93,-2.98 -0.17,-1.81 -2.21,-5.08 1.96,-0.49 3.16,-1.18 1.99,0.8 1.49,0.25 0.48,-2.15 -0.58,-1.55 -6.11,-17.27 -0.6,-0.16 -0.6,-0.42 -0.96,0.47 -1.11,0.19 -0.77,-1.87 0.1,-4.15 1.1,-1.35 -3.13,-7.55 -0.6,-0.14 -1.41,-0.95 -0.33,-1.02 -1.02,-0.08 -0.98,0.19 0.13,1.81 -0.18,1.16 -0.81,0.6 -1.28,0.19 0.93,-2.01 -0.74,-0.93 -0.73,1.55 -1.06,-0.39 -0.46,-1.91 -0.73,-1.27 -1.01,2.85 -0.91,-0.89 -0.52,-3.96 -1.14,1.84 -0.5,-2.39 -1.45,-1.09 -0.22,-1.72 1.61,-1.93 -0.17,-4.22 1.08,-2.03 8.13,-5.7 4.83,-0.7 4.44,1.03 2.19,3.75 4.15,-4.03 1.41,-3.57 0.89,-3.68 1.21,-6.57 -1.17,-2.49 -1.92,-1.56 -1.4,-2.58 0.42,-2.06 2.58,-2.9 3.98,-1.49 3.6,-3.25 4.2,-2.57 3.73,1.88 3.09,-1.23 1.83,-1.07 1.53,-1.79 0.99,-1.78 0.63,-2.4" vector-effect="none"/>
      </svg:g>
    </svg:g>
  </svg:g>
</svg:svg></g>
</svg>
