<?xml version="1.0" encoding="utf-8"?>
<svg xmlns="http://www.w3.org/2000/svg" fill="none" version="1.1" viewBox="-1 -2835.65 2836.65 2836.65" x="-1pt" y="-2835.65pt" width="2836.65pt" height="2836.65pt" stroke-width="0.566929" stroke-miterlimit="10.000000">
 <path d="M0 -0L2834.65 -0L2834.65 -2834.65L0 -2834.65Z" fill="#fff"/>
 <g fill="black" transform="matrix(3.571429,-0.000000,-0.000000,3.571429,0.000000,-2834.645669)"><svg:svg xmlns:inkscape="http://www.inkscape.org/namespaces/inkscape" xmlns:sodipodi="http://sodipodi.sourceforge.net/DTD/sodipodi-0.dtd" xmlns="http://www.w3.org/2000/svg" xmlns:svg="http://www.w3.org/2000/svg" width="210mm" height="210mm" viewBox="0 0 210 210" version="1.1" id="svg5" inkscape:version="1.1 (c68e22c387, 2021-05-23)" sodipodi:docname="micronesia.svg">
  <sodipodi:namedview id="namedview7" pagecolor="#ffffff" bordercolor="#666666" borderopacity="1.0" inkscape:pageshadow="2" inkscape:pageopacity="0.0" inkscape:pagecheckerboard="0" inkscape:document-units="mm" showgrid="false" inkscape:zoom="0.77771465" inkscape:cx="896.2156" inkscape:cy="499.54055" inkscape:window-width="2560" inkscape:window-height="1387" inkscape:window-x="1432" inkscape:window-y="1588" inkscape:window-maximized="1" inkscape:current-layer="layer"/>
  <svg:defs id="defs2"/>
  <svg:g inkscape:label="Layer 1" inkscape:groupmode="layer" id="layer1">
    <svg:g id="layer" transform="matrix(0.26458333,0,0,0.26458333,-174.03077,1.8732049)">
      <svg:path d="m 694.6709,358.38375 c 0.11062,0.0369 0.24238,0.0452 0.35792,0.0339 l 0.0767,-0.11947 -0.0339,-0.16175 c -0.17454,-0.21289 -0.60079,-0.18388 -0.86039,-0.24681 -0.30924,-0.0752 -1.5123,-0.67798 -1.93364,-0.85153" style="fill:none;fill-rule:evenodd;stroke:#000000;stroke-width:0.557478;stroke-miterlimit:3.8637;stroke-opacity:0.979253" id="path15"/>
      <svg:path d="m 691.66448,356.72297 c -0.5408,-0.0688 -1.11309,-0.11259 -1.17552,-0.76647 0.14798,-0.50739 0.81465,-0.37169 0.96264,-0.82646 -0.0438,-0.50394 -0.4651,-0.86579 -0.36627,-1.38005 0.0482,-0.10375 0.14847,-0.17159 0.24975,-0.21535 0.5949,-0.26057 1.30385,0.21436 1.84564,-0.006 0.34022,-0.13816 0.22861,-0.70306 0.5536,-0.81761 0.22173,-0.0781 0.4995,0.0919 0.69863,-0.0684 0.0674,-0.057 0.10668,-0.206 0.10226,-0.28958 -0.0772,-0.14356 -0.11357,-0.31564 -0.12783,-0.4769 0.0541,-0.1293 0.13323,-0.26844 0.26401,-0.33235 0.21731,-0.0206 0.88103,0.0688 0.99657,0.0172" style="fill:none;fill-rule:evenodd;stroke:#000000;stroke-width:0.557478;stroke-miterlimit:3.8637;stroke-opacity:0.979253" id="path17"/>
      <svg:path d="m 695.90592,351.19539 c -0.008,-0.15634 0.0585,-0.3176 0.16175,-0.43412 0.091,-0.0388 0.20845,-0.056 0.30679,-0.0423 0.40462,-0.18043 0.4056,-0.54867 1.11603,-0.67306 2.13965,-0.37415 1.10031,1.85646 0.26402,2.62293" style="fill:none;fill-rule:evenodd;stroke:#000000;stroke-width:0.557478;stroke-miterlimit:3.8637;stroke-opacity:0.979253" id="path19"/>
      <svg:path d="m 698.4379,353.00661 c 0.0501,0.66569 -0.65881,1.86039 -0.82843,2.80484 -0.19666,1.09638 0.13569,2.04525 -0.52802,3.02363 -0.34121,0.50295 -1.42922,1.91743 -2.09787,1.24928 -0.2291,-0.22911 -0.29892,-0.44052 -0.2527,-0.76403" style="fill:none;fill-rule:evenodd;stroke:#000000;stroke-width:0.557478;stroke-miterlimit:3.8637;stroke-opacity:0.979253" id="path21"/>
      <svg:path d="m 1196.9372,569.84328 c -0.1061,-0.0143 -0.2886,-0.22567 -0.4602,-0.25566 -0.1676,-0.0295 -0.3126,0.0482 -0.4738,-0.0226 l -0.045,-0.0202 c -0.7227,-0.99707 -0.1057,-1.6598 0.4002,-1.28615" style="fill:none;fill-rule:evenodd;stroke:#000000;stroke-width:0.557478;stroke-miterlimit:3.8637;stroke-opacity:0.979253" id="path23"/>
      <svg:path d="m 1163.7831,446.22226 c -0.4691,-0.47689 -0.7591,-1.0531 -1.1279,-1.33678 -0.2267,-0.17454 -0.5374,-0.23157 -0.795,-0.33776 -0.4907,-0.20207 -1.5619,-0.76107 -1.8117,-1.22912 -0.096,-0.18092 -0.1396,-0.38398 -0.2212,-0.5708" style="fill:none;fill-rule:evenodd;stroke:#000000;stroke-width:0.557478;stroke-miterlimit:3.8637;stroke-opacity:0.979253" id="path27"/>
      <svg:path d="m 1159.5721,442.01524 c -0.034,-0.15388 -0.051,-0.31907 -0.042,-0.47689 0.2434,-0.23403 0.3948,-0.96462 0.8348,-1.11604 0.4371,0.032 0.8707,0.23992 1.3117,0.28122 0.6671,0.0619 1.4307,-0.29302 2.0355,0.19567 0.2841,0.22912 0.3677,0.56147 0.5963,0.79205 h 0.018" style="fill:none;fill-rule:evenodd;stroke:#000000;stroke-width:0.557478;stroke-miterlimit:3.8637;stroke-opacity:0.979253" id="path29"/>
      <svg:path d="m 1161.5653,438.31266 c -0.3388,-0.29401 -0.6058,-0.66471 -0.4602,-0.92184 0.092,-0.11013 0.2158,-0.18043 0.3406,-0.2468 l 0.018,-0.0256" style="fill:none;fill-rule:evenodd;stroke:#000000;stroke-width:0.557478;stroke-miterlimit:3.8637;stroke-opacity:0.979253" id="path31"/>
      <svg:path d="m 1167.6897,439.36134 c 0.5993,-0.17454 1.2655,-0.31171 1.7281,-0.19912" style="fill:none;fill-rule:evenodd;stroke:#000000;stroke-width:0.557478;stroke-miterlimit:3.8637;stroke-opacity:0.979253" id="path33"/>
      <svg:path d="m 1165.0653,442.10914 c 0.067,0.13324 0.1834,0.20355 0.2724,0.31515 0.117,0.14602 0.1882,0.35595 0.2812,0.51967 0.1426,0.25123 0.3594,0.43707 0.5196,0.67307 0.2429,0.35791 0.3683,0.76844 0.6898,1.08997 l 0.026,0.0595" style="fill:none;fill-rule:evenodd;stroke:#000000;stroke-width:0.557478;stroke-miterlimit:3.8637;stroke-opacity:0.979253" id="path35"/>
      <svg:path d="m 1183.3265,364.39708 c -0.066,-0.0246 -0.1317,-0.11554 -0.1534,-0.17897 -0.3795,-0.15633 -0.7743,-0.27433 -1.1672,-0.39183 l 0.069,-0.0428" style="fill:none;fill-rule:evenodd;stroke:#000000;stroke-width:0.557478;stroke-miterlimit:3.8637;stroke-opacity:0.979253" id="path37"/>
      <svg:path d="m 1184.0591,364.83169 c 0.2124,-0.23206 0.056,-0.71927 0.3235,-0.86923 0.029,-0.23255 0.2448,-0.53393 0.1362,-0.76647 -0.1461,-0.118 -0.2351,-0.29401 -0.4003,-0.40021 -0.526,-0.33825 -0.792,-0.0959 -1.2689,-0.18732 -0.1357,0.16176 -0.323,0.35449 -0.4346,0.52803" style="fill:none;fill-rule:evenodd;stroke:#000000;stroke-width:0.557478;stroke-miterlimit:3.8637;stroke-opacity:0.979253" id="path39"/>
      <svg:path d="m 1217.0594,380.76644 c 0.061,-1.07867 -0.4646,-2.15489 -1.7842,-1.92381 -0.4696,0.0821 -0.946,0.4002 -1.448,0.34071 -0.498,-0.0595 -0.8868,-0.36136 -1.3539,-0.44297 -0.5551,-0.0974 -1.1804,-0.0379 -1.7704,-0.0108" style="fill:none;fill-rule:evenodd;stroke:#000000;stroke-width:0.557478;stroke-miterlimit:3.8637;stroke-opacity:0.979253" id="path41"/>
      <svg:path d="m 1208.5691,379.9857 c 0.011,0.61407 -0.297,1.29795 -0.099,1.82942 0.4331,1.16668 1.8594,1.2596 2.5895,2.1716 0.1072,0.13373 0.2866,0.29008 0.3662,0.43462 0.1781,0.32301 0.2065,0.72862 0.4174,1.03344 0.055,0.0792 0.092,0.1057 0.1791,0.15044 0.9995,0.51574 2.8795,-0.69027 3.7134,-1.22665 0.141,-0.0905 0.7517,-0.46805 0.8175,-0.5708 0.1053,-0.16372 0.1137,-0.44642 0.077,-0.6303" style="fill:none;fill-rule:evenodd;stroke:#000000;stroke-width:0.557478;stroke-miterlimit:3.8637;stroke-opacity:0.979253" id="path43"/>
      <svg:path d="m 1288.6514,404.10489 c -0.1475,-0.14847 -0.4386,-1.27189 -0.358,-1.49903 0.2395,-0.353 0.7056,-0.0364 0.9967,0.0423 0.2733,0.0737 0.6243,0.0181 0.8942,-0.0423" style="fill:none;fill-rule:evenodd;stroke:#000000;stroke-width:0.557478;stroke-miterlimit:3.8637;stroke-opacity:0.979253" id="path45"/>
      <svg:path d="m 1267.5662,431.7123 c 0.5821,-0.34464 1.146,-0.59194 1.734,-0.99116 h -0.017" style="fill:none;fill-rule:evenodd;stroke:#000000;stroke-width:0.557478;stroke-miterlimit:3.8637;stroke-opacity:0.979253" id="path47"/>
      <svg:path d="m 1267.9418,432.65184 c 0.5772,-0.056 1.4926,-0.35742 1.8948,0.0285" style="fill:none;fill-rule:evenodd;stroke:#000000;stroke-width:0.557478;stroke-miterlimit:3.8637;stroke-opacity:0.979253" id="path49"/>
      <svg:path d="m 1115.8947,397.15497 c -0.098,-0.0978 -0.2236,-0.16863 -0.3151,-0.27286 -0.3363,-0.38151 -0.9563,-1.50148 -1.2777,-1.70306 -0.2833,-0.0271 -0.6289,4.9e-4 -0.8944,-0.0939 -0.201,-0.2296 -0.5295,-0.8889 -0.673,-1.00493" style="fill:none;fill-rule:evenodd;stroke:#000000;stroke-width:0.557478;stroke-miterlimit:3.8637;stroke-opacity:0.979253" id="path51"/>
      <svg:path d="m 1116.9341,395.91111 c -0.1951,-0.0137 -0.5304,-0.34169 -0.6814,-0.46854 -0.3338,-0.28073 -0.7906,-0.38643 -1.1244,-0.65585 -0.2469,-0.19961 -0.4734,-0.50001 -0.7493,-0.65586 l -0.01,-0.0428" style="fill:none;fill-rule:evenodd;stroke:#000000;stroke-width:0.557478;stroke-miterlimit:3.8637;stroke-opacity:0.979253" id="path53"/>
      <svg:path d="m 1117.3515,388.03248 c 0.046,-0.0959 0.1244,-0.1352 0.179,-0.21288 0.056,-0.0802 0.1479,-0.49214 0.1785,-0.61308 -0.092,-0.19912 -0.5325,-0.34809 -0.7237,-0.46854 -0.386,-0.736 -0.119,-1.07523 -0.069,-1.82303 0.021,-0.31269 -0.04,-0.59784 -0.085,-0.90266 -0.087,-0.5826 -0.6293,-1.13324 -0.6558,-1.72077 -0.017,-0.36578 0.293,-0.82104 0.1618,-1.1416 -0.4696,-0.37906 -0.2591,-1.03344 -0.5448,-1.43953 -0.2483,-0.35301 -0.9154,-0.66422 -1.2522,-1.1072" style="fill:none;fill-rule:evenodd;stroke:#000000;stroke-width:0.557478;stroke-miterlimit:3.8637;stroke-opacity:0.979253" id="path55"/>
      <svg:path d="m 1113.4508,377.93997 c -0.1947,-0.0276 -1.6269,-0.74387 -2.1465,-0.83482 -0.386,-0.0678 -2.5448,0.73206 -2.8535,1.04769" style="fill:none;fill-rule:evenodd;stroke:#000000;stroke-width:0.557478;stroke-miterlimit:3.8637;stroke-opacity:0.979253" id="path57"/>
      <svg:path d="m 1106.8411,381.2871 c -0.1027,-0.43856 0.9302,-1.25223 1.2183,-1.51575 l 0.043,-0.1534 c -0.062,-0.23746 -0.1135,-0.35841 -0.2468,-0.56194" style="fill:none;fill-rule:evenodd;stroke:#000000;stroke-width:0.557478;stroke-miterlimit:3.8637;stroke-opacity:0.979253" id="path59"/>
      <svg:path d="m 1101.0067,386.78911 c 0.1603,-0.15487 0.2709,-1.06441 0.707,-1.48232 0.2242,-0.21485 0.5546,-0.23058 0.8176,-0.36627 0.9701,-0.5005 2.0718,-0.67208 2.6657,-1.72076 0.1524,-0.26893 0.2557,-0.57032 0.4091,-0.84318" style="fill:none;fill-rule:evenodd;stroke:#000000;stroke-width:0.557478;stroke-miterlimit:3.8637;stroke-opacity:0.979253" id="path61"/>
      <svg:path d="m 1103.2718,388.10082 c -0.1657,0.0103 -0.3516,0.0256 -0.5615,0.0453 -0.2616,0.0251 -0.6219,-0.0934 -0.8348,-0.0541" style="fill:none;fill-rule:evenodd;stroke:#000000;stroke-width:0.557478;stroke-miterlimit:3.8637;stroke-opacity:0.979253" id="path63"/>
      <svg:path d="m 1106.0147,389.88943 c -0.1711,-0.12193 -0.3103,-0.32301 -0.446,-0.4828 -0.1809,-0.21386 -0.3269,-0.39626 -0.4553,-0.55162" style="fill:none;fill-rule:evenodd;stroke:#000000;stroke-width:0.557478;stroke-miterlimit:3.8637;stroke-opacity:0.979253" id="path65"/>
      <svg:path d="m 1113.1524,392.12101 c -0.1825,-0.0551 -0.7763,-1.15487 -1.1328,-1.39677 -0.6097,-0.41347 -2.4361,-0.43215 -3.1682,-0.38348 -0.2659,0.0177 -0.4985,0.085 -0.7753,0.085" style="fill:none;fill-rule:evenodd;stroke:#000000;stroke-width:0.557478;stroke-miterlimit:3.8637;stroke-opacity:0.979253" id="path67"/>
      <svg:path d="m 1125.2301,349.83255 c 0.01,-0.0172 0.4179,-0.4533 0.6967,-0.75222" style="fill:none;fill-rule:evenodd;stroke:#000000;stroke-width:0.557478;stroke-miterlimit:3.8637;stroke-opacity:0.979253" id="path69"/>
      <svg:path d="m 1126.6013,346.64717 c -0.07,-0.13865 -0.1873,-0.20305 -0.2812,-0.31515 -0.1072,-0.12783 -0.1868,-0.39135 -0.3151,-0.47689 -0.6037,-0.40266 -1.5158,-0.54573 -2.2144,-0.4941 l -0.034,0.0255" style="fill:none;fill-rule:evenodd;stroke:#000000;stroke-width:0.557478;stroke-miterlimit:3.8637;stroke-opacity:0.979253" id="path71"/>
      <svg:path d="m 1118.6032,349.80698 c 0.6131,-0.17748 2.2498,-0.60669 2.5635,-1.19225" style="fill:none;fill-rule:evenodd;stroke:#000000;stroke-width:0.557478;stroke-miterlimit:3.8637;stroke-opacity:0.979253" id="path73"/>
      <svg:path d="m 1110.112,350.30109 c 0.4391,0.12733 0.9218,0.06 1.354,0.19567 0.1052,0.0329 1.1819,0.4946 1.2433,0.53638 0.1132,0.0767 0.1888,0.177 0.3236,0.2301 v 0.0172" style="fill:none;fill-rule:evenodd;stroke:#000000;stroke-width:0.557478;stroke-miterlimit:3.8637;stroke-opacity:0.979253" id="path75"/>
      <svg:path d="m 1110.6229,354.71263 c 0.2418,-0.18437 0.4709,-0.75271 0.6558,-0.85154 0.8938,-0.4764 1.381,-0.40707 1.9931,-1.33727" style="fill:none;fill-rule:evenodd;stroke:#000000;stroke-width:0.557478;stroke-miterlimit:3.8637;stroke-opacity:0.979253" id="path77"/>
      <svg:path d="m 1108.4169,355.13888 c -0.097,-0.10127 -0.2248,-0.16519 -0.3153,-0.27286 -0.5048,-0.60128 -0.674,-1.57769 -0.4768,-2.325 v -0.0172" style="fill:none;fill-rule:evenodd;stroke:#000000;stroke-width:0.557478;stroke-miterlimit:3.8637;stroke-opacity:0.979253" id="path79"/>
      <svg:path d="m 1039.7334,404.38611 c -0.6279,-0.31318 -0.7336,-1.17995 -1.0306,-1.73747 -0.116,-0.21731 -0.2536,-0.42086 -0.3407,-0.65586 -0.078,-0.2119 -0.1592,-0.77287 -0.2556,-0.92823 -0.1667,-0.26893 -1.1209,-0.6185 -1.4396,-0.74927" style="fill:none;fill-rule:evenodd;stroke:#000000;stroke-width:0.557478;stroke-miterlimit:3.8637;stroke-opacity:0.979253" id="path81"/>
      <svg:path d="m 1037.7943,404.73911 c -0.2374,-0.25172 -0.4155,-0.55015 -0.6421,-0.8299 -0.408,-0.50492 -1.06,-0.82744 -1.2773,-1.49902 -0.1053,-0.32449 -0.144,-1.1008 -0.2812,-1.30287 -0.2006,-0.29597 -0.829,-0.37316 -1.0733,-0.61357" style="fill:none;fill-rule:evenodd;stroke:#000000;stroke-width:0.557478;stroke-miterlimit:3.8637;stroke-opacity:0.979253" id="path83"/>
      <svg:path d="m 1033.9246,399.50554 c -0.1932,-0.27385 -0.4618,-0.54377 -0.5025,-0.88545 -0.063,-0.53 0.1843,-0.49411 0.3407,-0.85203 0.1524,-0.34759 0.025,-0.75566 -0.025,-1.10719 -0.1501,-1.05064 0.2206,-1.26549 -1.184,-1.51574 -0.2261,0.11406 -0.3112,0.35447 -0.5958,0.39184 -0.6043,-0.12881 -0.4553,-0.35841 -0.6986,-0.76648" style="fill:none;fill-rule:evenodd;stroke:#000000;stroke-width:0.557478;stroke-miterlimit:3.8637;stroke-opacity:0.979253" id="path85"/>
      <svg:path d="m 1067.8064,350.01151 c -0.086,-0.007 -0.3064,-0.15242 -0.3776,-0.20748 -0.7424,-0.57129 -0.3378,-0.88103 -0.4229,-1.43659" style="fill:none;fill-rule:evenodd;stroke:#000000;stroke-width:0.557478;stroke-miterlimit:3.8637;stroke-opacity:0.979253" id="path87"/>
      <svg:path d="m 1069.8162,349.0233 c -0.028,-0.37267 -0.8049,-1.31565 -1.0305,-1.66964" style="fill:none;fill-rule:evenodd;stroke:#000000;stroke-width:0.557478;stroke-miterlimit:3.8637;stroke-opacity:0.979253" id="path89"/>
      <svg:path d="m 1066.2306,344.04931 c -1.4134,-0.49164 -0.2989,-3.18095 -2.913,-4.8378" style="fill:none;fill-rule:evenodd;stroke:#000000;stroke-width:0.557478;stroke-miterlimit:3.8637;stroke-opacity:0.979253" id="path91"/>
      <svg:path d="m 1056.052,345.2504 h 0.1195 c 0.1859,-0.21239 0.3752,-0.24483 0.5709,-0.40905 0.2065,-0.17355 0.4168,-0.39971 0.6046,-0.59587 0.073,-0.0767 0.125,-0.12931 0.2213,-0.17896 0.3235,-0.16667 0.7375,-0.0329 1.0816,-0.06 0.3319,-0.0256 0.4686,-0.3235 0.6647,-0.52803 0.2508,-0.26155 0.5709,-0.23303 0.8373,-0.4174 0.042,-0.0295 0.071,-0.0467 0.099,-0.091 l 0.051,-0.0796 c 0.2193,-0.50148 0.033,-1.11259 0.2218,-1.59293" style="fill:none;fill-rule:evenodd;stroke:#000000;stroke-width:0.557478;stroke-miterlimit:3.8637;stroke-opacity:0.979253" id="path93"/>
      <svg:path d="m 1050.0648,349.6708 c -0.039,-0.31416 0.3471,-0.64652 0.5196,-0.86039 0.1594,-0.19715 0.124,-0.50443 0.2724,-0.71534 0.296,-0.42036 2.6515,-0.92528 3.3049,-1.25222 0.3648,-0.18241 0.5246,-0.65192 1.0561,-0.91988" style="fill:none;fill-rule:evenodd;stroke:#000000;stroke-width:0.557478;stroke-miterlimit:3.8637;stroke-opacity:0.979253" id="path95"/>
      <svg:path d="m 1058.2581,351.91074 c -0.4125,-0.25222 -0.823,-0.34563 -1.2517,-0.51967 -0.1225,-0.0497 -0.2518,-0.16766 -0.3747,-0.22125 -0.9434,-0.41249 -1.3628,0.40905 -2.1893,0.40905 -0.6411,0 -1.1544,-0.53196 -1.5585,-0.63028 -0.3821,-0.0929 -1.6554,0.16077 -2.146,0.19567 l -0.077,0.0684" style="fill:none;fill-rule:evenodd;stroke:#000000;stroke-width:0.557478;stroke-miterlimit:3.8637;stroke-opacity:0.979253" id="path97"/>
      <svg:path d="m 1059.4336,351.63836 c 0.6519,-0.25172 0.9494,0.24583 1.5074,0.35792 0.4041,0.0806 0.8171,-0.1175 1.2094,-0.14503 0.8599,-0.06 1.6613,0.36578 2.5212,0.16175 0.071,-0.0167 0.1588,-0.0693 0.2271,-0.0993 0.1063,-0.0467 0.1814,-0.14404 0.2837,-0.19862 0.3402,-0.18142 0.7704,-0.30383 1.1328,-0.45133 v -0.0172" style="fill:none;fill-rule:evenodd;stroke:#000000;stroke-width:0.557478;stroke-miterlimit:3.8637;stroke-opacity:0.979253" id="path99"/>
      <svg:path d="m 951.51922,381.42328 c 0.87955,-0.15634 2.26255,-0.7296 2.84515,0.29794 0.0762,0.13422 0.0831,0.29105 0.13619,0.43412" style="fill:none;fill-rule:evenodd;stroke:#000000;stroke-width:0.557478;stroke-miterlimit:3.8637;stroke-opacity:0.979253" id="path101"/>
      <svg:path d="m 903.38803,385.03442 c 0.16568,-0.13913 0.69567,-0.7119 0.83481,-0.74927 0.39086,-0.1057 1.32056,0.412 1.53296,-0.19567 0.007,-0.14798 0.008,-0.34957 -0.0767,-0.4769 -0.10374,-0.0546 -0.39331,-0.24533 -0.46018,-0.33186 0.0919,-0.20404 0.32645,-0.68535 0.29794,-0.89431 -0.0526,-0.38987 -0.57376,-0.8476 -0.97936,-0.76647 -0.0394,0.008 -0.23649,0.10324 -0.27238,0.12783 -0.0855,0.058 -0.13421,0.1465 -0.19026,0.23009 -0.20649,0.31023 -0.58653,0.48967 -0.86579,0.73255" style="fill:none;fill-rule:evenodd;stroke:#000000;stroke-width:0.557478;stroke-miterlimit:3.8637;stroke-opacity:0.979253" id="path103"/>
      <svg:path d="m 902.34868,385.648 c -0.18092,0.0629 -0.33726,0.19862 -0.51081,0.27237 -0.2355,0.0998 -0.52754,0.0674 -0.77533,0.091 -0.72764,0.0693 -1.03147,0.34021 -1.27484,-0.53394 -0.0654,-0.2355 -0.26844,-0.67798 -0.10521,-0.8943 0.41298,-0.29007 1.34367,0.13029 1.73747,0.0595 0.37808,-0.0678 0.42774,-0.53 0.59637,-0.79205 0.0172,-0.027 0.49657,-0.50738 0.53639,-0.53688" style="fill:none;fill-rule:evenodd;stroke:#000000;stroke-width:0.557478;stroke-miterlimit:3.8637;stroke-opacity:0.979253" id="path105"/>
      <svg:path d="m 1120.5113,350.85468 c 0.148,-0.19224 1.1461,-0.53196 1.4135,-0.61308" style="fill:none;fill-rule:evenodd;stroke:#000000;stroke-width:0.557478;stroke-miterlimit:3.8637;stroke-opacity:0.979253" id="path107"/>
      <svg:path d="m 759.82829,316.54711 c -0.34317,0.22075 -0.51278,0.27975 -0.91691,0.34071 -1.47052,0.22075 -1.11064,-1.66521 -1.6893,-2.35941 -0.35841,-0.43019 -1.69078,-0.94986 -1.75469,-1.26894 -0.0226,-0.11258 0,-0.2822 0,-0.4002" style="fill:none;fill-rule:evenodd;stroke:#000000;stroke-width:0.557478;stroke-miterlimit:3.8637;stroke-opacity:0.979253" id="path111"/>
      <svg:path d="m 755.43346,312.19457 c 0.47002,-0.17553 1.1362,-1.93365 0.97101,-2.44447 l -0.0339,-0.091 c -0.12783,-0.3407 -0.52852,-0.30974 -0.69863,-0.5649 -0.13667,-0.20502 -0.32891,-0.8653 -0.28122,-1.09882 0.0462,-0.2237 0.46117,-0.81614 0.71535,-0.80925" style="fill:none;fill-rule:evenodd;stroke:#000000;stroke-width:0.557478;stroke-miterlimit:3.8637;stroke-opacity:0.979253" id="path113"/>
      <svg:path d="m 757.28156,307.47575 c 0.21437,-0.17307 0.33924,-0.45035 0.56196,-0.6303 0.6888,-0.55605 2.40857,-1.13423 3.20258,-0.60472 0.29253,0.19469 0.35595,0.56097 0.55359,0.81761 0.19125,0.24828 0.4297,0.51573 0.65586,0.73255 l 0.24533,0.23894" style="fill:none;fill-rule:evenodd;stroke:#000000;stroke-width:0.557478;stroke-miterlimit:3.8637;stroke-opacity:0.979253" id="path115"/>
      <svg:path d="m 763.3121,310.85728 c 0.40954,0.0315 1.48329,0.88104 1.35399,1.33729 -0.82056,1.28909 -3.99757,-0.77533 -2.15488,-1.354 0.27335,-0.0861 0.51721,0.0211 0.75812,-0.0172 z" style="fill:none;fill-rule:evenodd;stroke:#000000;stroke-width:0.557478;stroke-miterlimit:3.8637;stroke-opacity:0.979253" id="path117"/>
      <svg:path d="m 766.08006,310.82337 c 0.09,0.14061 0.17405,0.33038 0.28122,0.45132 0.23256,0.15438 1.66522,-0.31858 0.89431,1.08163 -0.0206,0.18338 0.39725,0.6529 0.52803,0.83481 v 0.20452 c -0.0678,0.11948 -0.1765,0.21043 -0.27237,0.3068 -0.0457,0.33727 0.25074,0.48721 0.19616,0.93658 -0.0314,0.25959 -0.28663,0.44641 -0.27237,0.71584 0.0128,0.24877 0.19617,0.33628 0.25566,0.51967 0.20993,0.64897 -0.68044,1.12242 -1.19224,1.16668 -0.14947,-0.0379 -0.25566,-0.18879 -0.25566,-0.34022 0,-0.22764 0.69027,-1.55262 0.75812,-1.99314 0.0433,-0.2827 0.006,-0.62292 -0.0428,-0.90266 -0.0442,-0.2537 -0.41151,-0.99313 -0.57915,-1.19225 -0.32056,-0.38201 -1.51182,-1.1357 -1.07327,-1.7714 0.24632,-0.22074 0.60374,-0.1465 0.82596,0.0595 z" style="fill:none;fill-rule:evenodd;stroke:#000000;stroke-width:0.557478;stroke-miterlimit:3.8637;stroke-opacity:0.979253" id="path119"/>
      <svg:path d="m 760.78257,309.68176 c -0.26794,-0.26795 -0.74828,-0.57375 -1.01377,-0.0934 -0.0954,0.4769 1.68586,1.52902 0.13619,2.4361" style="fill:none;fill-rule:evenodd;stroke:#000000;stroke-width:0.557478;stroke-miterlimit:3.8637;stroke-opacity:0.979253" id="path121"/>
      <svg:path d="m 760.08394,312.80765 c 0.471,0.26057 0.65144,0.8648 0.52804,1.37169 -0.0448,0.18437 -0.17503,0.36283 -0.22173,0.56196 0.0654,0.50491 0.53687,0.39626 0.15634,1.26648 -0.0448,0.10275 -0.10571,0.27531 -0.19863,0.34365" style="fill:none;fill-rule:evenodd;stroke:#000000;stroke-width:0.557478;stroke-miterlimit:3.8637;stroke-opacity:0.979253" id="path123"/>
      <svg:path d="m 900.32163,350.20718 c 0.32891,0.29057 1.12931,0.69765 0.74927,1.27779 -1.46069,1.05803 -2.62834,-1.98084 -0.74927,-1.31172 z" style="fill:none;fill-rule:evenodd;stroke:#000000;stroke-width:0.557478;stroke-miterlimit:3.8637;stroke-opacity:0.979253" id="path125"/>
      <svg:path d="m 924.80906,331.55412 c 0.21239,0.0545 0.72025,0.16421 0.79203,0.40021 0.0452,0.98968 -1.9356,0.735 -1.7886,0 0.18141,-0.0137 0.3589,-0.18635 0.4769,-0.31515 0.10176,-0.007 0.44101,-0.0246 0.51967,-0.085 z" style="fill:none;fill-rule:evenodd;stroke:#000000;stroke-width:0.557478;stroke-miterlimit:3.8637;stroke-opacity:0.979253" id="path127"/>
      <svg:path d="m 939.55255,376.76395 c -0.15881,0.77483 -1.02902,1.5123 -1.77141,0.95379 -0.10521,-0.15831 -0.0924,-0.41888 -0.0202,-0.58456 0.3294,-0.75321 1.0064,-0.73157 1.7065,-0.93118 l 0.16175,0.0423 c 0.10915,0.23255 -0.0162,0.33039 -0.0595,0.52804 z" style="fill:none;fill-rule:evenodd;stroke:#000000;stroke-width:0.557478;stroke-miterlimit:3.8637;stroke-opacity:0.979253" id="path129"/>
      <svg:path d="m 965.19825,365.21468 c 0.46021,0.87022 -1.7399,1.39185 -1.96754,0.40905 l 0.0335,-0.15339 c 0.4641,-0.46412 1.3447,-0.95133 1.91645,-0.4002 0.009,0.0221 0.0573,0.13618 0.0511,0.1534 z" style="fill:none;fill-rule:evenodd;stroke:#000000;stroke-width:0.557478;stroke-miterlimit:3.8637;stroke-opacity:0.979253" id="path131"/>
      <svg:path d="m 762.10559,309.36121 0.16766,-0.0816 0.1352,0.059 0.0211,0.0531 -0.059,0.28761 c -0.10177,0.0157 -0.0718,0.0309 -0.14209,-0.0457 l -0.0354,-0.20649 z" style="fill:#fefee9;fill-rule:evenodd;stroke:#000000;stroke-width:1.39362;stroke-linejoin:round;stroke-miterlimit:3.8637;stroke-opacity:0.979253" id="path183"/>
      <svg:path d="m 758.4271,312.77815 -0.0615,0.007 c -8.8e-4,-0.0718 0.003,-0.33875 0.0511,-0.3943 l 0.1411,-0.0944 0.0413,0.0261 c -0.0733,0.0885 -0.21091,0.33087 -0.17207,0.45526 z" style="fill:#fefee9;fill-rule:evenodd;stroke:#000000;stroke-width:1.39362;stroke-linejoin:round;stroke-miterlimit:3.8637;stroke-opacity:0.979253" id="path185"/>
      <svg:polygon points="158.505,272.465 158.549,272.858 158.427,272.927 158.146,272.196 158.269,272.209 " style="fill:#fefee9;fill-rule:evenodd;stroke:#000000;stroke-width:2.8346;stroke-linejoin:round;stroke-miterlimit:3.8637;stroke-opacity:0.979253" id="polygon187" transform="matrix(0.4916463,0,0,0.4916463,681.27846,179.27062)"/>
      <svg:path d="m 783.55219,316.58005 0.17503,0.006 0.0137,0.0467 -0.2055,0.4823 -0.0678,0.0403 -0.1416,-0.0792 -0.0821,-0.18683 c 0.0427,-0.11111 0.18584,-0.27974 0.30826,-0.30924 z" style="fill:#fefee9;fill-rule:evenodd;stroke:#000000;stroke-width:1.39362;stroke-linejoin:round;stroke-miterlimit:3.8637;stroke-opacity:0.979253" id="path189"/>
      <svg:path d="m 713.32248,322.56781 c 0.24927,-0.21042 0.17208,-0.0988 0.25664,-0.44445 l 0.46216,-0.20698 0.25712,0.10325 -0.0181,0.0806 -0.12045,0.10177 0.0217,0.11357 -0.0806,0.0143 -0.005,0.0733 0.0757,0.14602 c -0.0187,0.0393 -0.0339,0.09 -0.0314,0.13372 l 0.28319,0.0364 0.42184,-0.21927 0.0118,-0.10079 -0.31612,0.0781 c -0.032,-0.0934 -0.0339,-0.18044 -0.0236,-0.28074 l 0.0669,-0.0339 -0.0831,-0.12587 c -0.005,-0.10374 0.32498,-0.50393 0.39577,-0.59981 4.9e-4,-0.14995 -0.36971,-0.54867 -0.44051,-0.66962 l 0.0442,-0.17404 0.16077,-0.10866 0.0875,-0.002 c 0.0791,0.0732 0.15881,0.13324 0.19961,0.23796 -0.10078,0.23894 -0.0211,0.31907 0.13373,0.47247 l 0.20158,-0.0556 c 0.10029,0.0914 0.18387,0.28958 0.21436,0.4179 -0.005,0.2645 -0.19027,0.43313 -0.2065,0.67748 l -0.0737,-0.0389 -0.0846,-0.29253 -0.084,0.31466 c 0.13766,0.19223 0.23746,0.32449 0.23058,0.58555 l 0.24435,0.10324 0.0865,-0.0615 c 0.004,-0.0762 0.0541,-0.20304 0.11897,-0.24926 l 0.2291,0.024 0.061,0.0463 c -0.11211,0.21437 -0.31073,0.47543 -0.23944,0.73157 -0.1293,0.0875 -0.25958,0.25173 -0.32498,0.39185 l -0.087,0.0276 -0.0551,-0.0663 -0.0369,-0.24582 c -0.10914,0.13126 -0.15634,0.29252 -0.21632,0.44985 l -0.1003,0.0752 -0.51279,-0.0398 c -0.0752,-0.12438 -0.06,-0.2886 0.0295,-0.40168 l -0.0217,-0.0796 -0.16716,0.13619 -0.0678,-0.0256 c -0.0398,-0.20796 0.15044,-0.42527 0.15339,-0.63717 l -0.0477,-0.0196 c -0.3004,0.38692 -0.76206,0.86677 -0.47985,1.36284 l -0.0379,0.1942 -0.20748,0.0566 -0.15634,-0.0581 -0.06,0.0678 0.056,0.10571 -0.16224,-0.0511 -0.061,0.0604 0.0354,0.12685 -0.0324,0.11456 -0.0595,0.0477 -0.19616,-0.0177 -0.12636,0.0752 -0.0261,0.088 -0.0934,0.0678 -0.20846,-0.0103 -0.0978,0.22812 0.10275,0.0929 -0.17208,0.22271 c 0.061,0.19913 -0.0521,0.36186 -0.18879,0.49657 l -0.19616,-0.0305 -0.11701,-0.23697 c 0.005,-0.37316 0.1765,-0.62833 0.26893,-0.96806 0.10177,-0.37414 0.004,-0.54621 0.41888,-0.82105 l 0.031,-0.23402 -0.09,-0.11947 0.20845,-0.0629 -0.002,-0.17356 0.11996,-0.10177 0.0123,-0.0629 c 0.0133,-0.0659 0.0949,-0.13373 0.13864,-0.18437 0.17307,-0.2001 0.28565,-0.41642 0.37611,-0.66913 z" style="fill:#fefee9;fill-rule:evenodd;stroke:#000000;stroke-width:1.39362;stroke-linejoin:round;stroke-miterlimit:3.8637;stroke-opacity:0.979253" id="path191"/>
      <svg:path d="m 1048.7531,351.21653 c 0.014,-0.12094 -0.014,-0.2173 -0.014,-0.33383 0.148,-0.19961 0.3358,-0.46902 0.5271,-0.61062 l 0.01,0.0541 c -0.1534,0.20157 -0.4675,0.50787 -0.3928,0.77582 0.018,0.0619 0.066,0.12881 0.062,0.19371 l -0.081,0.0403 c -0.041,-0.0246 -0.098,-0.0703 -0.1086,-0.11946 z" style="fill:#fefee9;fill-rule:evenodd;stroke:#000000;stroke-width:1.39362;stroke-linejoin:round;stroke-miterlimit:3.8637;stroke-opacity:0.979253" id="path193"/>
      <svg:polygon points="627.972,378.864 627.791,378.775 627.809,378.531 627.945,378.431 628.043,378.564 " style="fill:#fefee9;fill-rule:evenodd;stroke:#000000;stroke-width:2.8346;stroke-linejoin:round;stroke-miterlimit:3.8637;stroke-opacity:0.979253" id="polygon195" transform="matrix(0.4916463,0,0,0.4916463,681.27846,179.27062)"/>
      <svg:path d="m 882.14497,385.9892 c 5e-4,0.11456 -0.008,0.23058 -0.0246,0.34415 l -0.0737,0.0526 c -0.0777,-0.0202 -0.14749,-0.0619 -0.22714,-0.0752 l -0.0324,-0.10718 c 0.0452,-0.0964 0.11209,-0.20501 0.19666,-0.27237 0.0299,-0.01 0.13078,0.0457 0.16126,0.0581 z" style="fill:#fefee9;fill-rule:evenodd;stroke:#000000;stroke-width:1.39362;stroke-linejoin:round;stroke-miterlimit:3.8637;stroke-opacity:0.979253" id="path197"/>
      <svg:path d="m 972.93283,386.45528 c -0.0731,0.0978 -0.18879,0.22862 -0.29741,0.28958 l -0.10722,-0.0379 -0.009,-0.15733 0.11453,-0.11357 c 0.0705,-0.0133 0.23795,-0.0448 0.29644,0.0192 z" style="fill:#fefee9;fill-rule:evenodd;stroke:#000000;stroke-width:1.39362;stroke-linejoin:round;stroke-miterlimit:3.8637;stroke-opacity:0.979253" id="path199"/>
      <svg:path d="m 880.19756,387.58164 0.009,0.0914 c -0.0787,0.0545 -0.20157,0.0305 -0.26057,-0.0417 l 0.0349,-0.087 c 0.0733,-0.0192 0.15831,-0.0162 0.21633,0.0374 z" style="fill:#fefee9;fill-rule:evenodd;stroke:#000000;stroke-width:1.39362;stroke-linejoin:round;stroke-miterlimit:3.8637;stroke-opacity:0.979253" id="path201"/>
      <svg:path d="m 1038.5799,405.62801 0.059,-0.0206 0.1146,0.0379 0.035,0.0659 c 0.01,0.12684 -0.115,0.65979 -0.1873,0.73059 l -0.1613,-0.0511 c -0.028,-0.15143 0.031,-0.62095 0.1396,-0.76255 z" style="fill:#fefee9;fill-rule:evenodd;stroke:#000000;stroke-width:1.39362;stroke-linejoin:round;stroke-miterlimit:3.8637;stroke-opacity:0.979253" id="path203"/>
      <svg:path d="m 1062.1726,339.19971 -0.013,-0.0128 c 0.04,-0.0113 0.093,-0.0197 0.1337,-0.007 l 0.047,0.0403 -0.086,0.0934 -0.062,0.007 -0.053,-0.033 -0.014,-0.0329 z" style="fill:#fefee9;fill-rule:evenodd;stroke:#000000;stroke-width:1.39362;stroke-linejoin:round;stroke-miterlimit:3.8637;stroke-opacity:0.979253" id="path205"/>
      <svg:path d="m 1060.5566,340.11958 0.1008,0.0462 c 0.01,0.0541 -0.066,0.10619 -0.1063,0.12734 h -0.061 c 0,-0.0393 0.047,-0.0821 0.067,-0.11357 v -0.06 z" style="fill:#fefee9;fill-rule:evenodd;stroke:#000000;stroke-width:1.39362;stroke-linejoin:round;stroke-miterlimit:3.8637;stroke-opacity:0.979253" id="path207"/>
      <svg:path d="m 1066.7243,344.69189 c 0.046,0.0762 0.1415,0.0796 0.1808,0.15339 l -0.073,0.0138 c -0.052,-0.0408 -0.1116,-0.0678 -0.1539,-0.12046 z" style="fill:#fefee9;fill-rule:evenodd;stroke:#000000;stroke-width:1.39362;stroke-linejoin:round;stroke-miterlimit:3.8637;stroke-opacity:0.979253" id="path209"/>
      <svg:path d="m 1068.3049,346.29761 -0.074,0.0202 c -0.026,-0.0349 -0.032,-0.0792 -0.04,-0.11997 -0.01,-0.0349 -0.014,-0.0688 -0.032,-0.10029 -0.01,-0.0147 -0.023,-0.031 -0.023,-0.0487 v -0.0177 c 0.059,5e-4 0.1878,0.18536 0.1686,0.26648 z" style="fill:#fefee9;fill-rule:evenodd;stroke:#000000;stroke-width:1.39362;stroke-linejoin:round;stroke-miterlimit:3.8637;stroke-opacity:0.979253" id="path211"/>
      <svg:path d="m 1126.6741,347.93971 0.034,0.0329 c -0.014,0.0811 -0.058,0.16766 -0.1284,0.21388 -0.091,-0.0895 0.017,-0.20256 0.095,-0.24681 z" style="fill:#fefee9;fill-rule:evenodd;stroke:#000000;stroke-width:1.39362;stroke-linejoin:round;stroke-miterlimit:3.8637;stroke-opacity:0.979253" id="path213"/>
      <svg:path d="m 1069.3378,349.97513 0.1072,-0.0403 c 0.032,0.0206 0.058,0.0634 0.067,0.10029 l -0.034,0.0467 -0.053,0.0128 z" style="fill:#fefee9;fill-rule:evenodd;stroke:#000000;stroke-width:1.39362;stroke-linejoin:round;stroke-miterlimit:3.8637;stroke-opacity:0.979253" id="path215"/>
      <svg:path d="m 1123.5158,350.33354 0.073,0.0275 c 0.011,0.0299 0.033,0.0566 0.054,0.0806 0.062,0.0113 0.1466,0.0147 0.1943,-0.0329 l 0.041,0.0477 c -0.089,0.0418 -0.146,0.0713 -0.2418,0.085 -0.056,-0.0379 -0.1033,-0.0836 -0.1534,-0.12832 l -0.01,-0.0595 z" style="fill:#fefee9;fill-rule:evenodd;stroke:#000000;stroke-width:1.39362;stroke-linejoin:round;stroke-miterlimit:3.8637;stroke-opacity:0.979253" id="path217"/>
      <svg:path d="m 1117.8441,350.90188 0.048,-0.0467 0.073,4.9e-4 0.027,0.0934 c -0.019,0.0585 -0.09,0.0895 -0.1416,0.11259 l -0.021,-0.0541 c 0.015,-0.0305 0.018,-0.0722 0.014,-0.1057 z" style="fill:#fefee9;fill-rule:evenodd;stroke:#000000;stroke-width:1.39362;stroke-linejoin:round;stroke-miterlimit:3.8637;stroke-opacity:0.979253" id="path219"/>
      <svg:path d="m 1070.3309,350.97464 c 0.031,0.0383 0.1406,0.028 0.208,0.0934 l 0.014,0.0467 -0.087,0.06 h -0.073 l -0.062,-0.0802 v -0.11996 z" style="fill:#fefee9;fill-rule:evenodd;stroke:#000000;stroke-width:1.39362;stroke-linejoin:round;stroke-miterlimit:3.8637;stroke-opacity:0.979253" id="path221"/>
      <svg:path d="m 1098.1581,351.49726 c -0.04,-0.11062 -0.026,-0.23205 -0.026,-0.34759 l 0.048,0.0202 c 0.024,0.0781 0.056,0.20748 0.026,0.28713 z" style="fill:#fefee9;fill-rule:evenodd;stroke:#000000;stroke-width:1.39362;stroke-linejoin:round;stroke-miterlimit:3.8637;stroke-opacity:0.979253" id="path223"/>
      <svg:path d="m 1114.4208,351.6954 0.047,8.8e-4 0.061,0.0531 0.01,0.0531 c -0.037,0.0462 -0.1086,0.0826 -0.1677,0.0861 l -0.067,-0.0202 -0.01,-0.0404 c 0.038,-0.0516 0.094,-0.0767 0.1278,-0.13274 z" style="fill:#fefee9;fill-rule:evenodd;stroke:#000000;stroke-width:1.39362;stroke-linejoin:round;stroke-miterlimit:3.8637;stroke-opacity:0.979253" id="path225"/>
      <svg:path d="m 1109.4714,355.65708 -0.027,-0.0403 -0.067,0.0265 c -0.039,-0.0246 -0.096,-0.0472 -0.1,-0.0998 l 0.1,-0.033 0.067,0.033 z" style="fill:#fefee9;fill-rule:evenodd;stroke:#000000;stroke-width:1.39362;stroke-linejoin:round;stroke-miterlimit:3.8637;stroke-opacity:0.979253" id="path227"/>
      <svg:path d="m 1112.6622,383.74385 c 0.1332,-0.0379 0.2763,-0.0713 0.4154,-0.0777 l 0.08,0.10079 -0.1338,0.059 0.078,0.10078 c 0.07,0.008 0.5054,0.0349 0.5624,0.084 -0.019,0.11751 -0.7335,0.35596 -0.9075,0.41987 l -0.1092,0.25271 c -0.2459,0.057 -0.3019,0.35693 -0.471,0.3766 -0.2719,-0.1529 -0.2389,-1.06736 -0.1573,-1.32745 0.1652,-0.0811 0.4926,-0.10816 0.6426,0.0113 z" style="fill:#fefee9;fill-rule:evenodd;stroke:#000000;stroke-width:1.39362;stroke-linejoin:round;stroke-miterlimit:3.8637;stroke-opacity:0.979253" id="path229"/>
      <svg:path d="m 1108.6838,386.02853 c 0.085,-8.8e-4 0.2448,0.004 0.321,0.0492 l 0.1057,0.17404 -0.075,0.0993 c -0.1169,0.0231 -0.2876,0.0285 -0.3737,-0.0693 l -0.1469,-4.9e-4 -0.046,-0.10718 -0.094,-0.0604 -0.2547,0.0983 -0.053,-0.0669 c 0,-0.0816 0.048,-0.19124 0.1023,-0.25221 l -0.019,-0.16076 0.088,-0.1062 c 0.1594,0.0634 0.3388,0.28516 0.445,0.40266 z" style="fill:#fefee9;fill-rule:evenodd;stroke:#000000;stroke-width:1.39362;stroke-linejoin:round;stroke-miterlimit:3.8637;stroke-opacity:0.979253" id="path231"/>
      <svg:path d="m 1113.4075,386.12195 c 0.1008,-0.031 0.1996,-0.0728 0.295,-0.11751 0.011,0.0934 5e-4,0.22616 -0.041,0.31268 l -0.1426,0.0663 c -0.089,-0.005 -0.2148,-0.0216 -0.2934,-0.0688 -0.045,0.0722 -0.1181,0.13815 -0.1888,0.18486 -0.09,0.0172 -0.1918,0.0162 -0.2808,-0.002 -0.2222,-0.15684 -0.076,-0.50935 -0.055,-0.73404 l 0.08,-0.0196 c 0.2729,0.0792 0.4705,0.16814 0.7429,-0.0216 l 0.052,0.0944 -0.013,0.10668 c -0.061,0.0408 -0.1495,0.0619 -0.2217,0.058 0,0.0482 0.028,0.10915 0.066,0.14013 z" style="fill:#fefee9;fill-rule:evenodd;stroke:#000000;stroke-width:1.39362;stroke-linejoin:round;stroke-miterlimit:3.8637;stroke-opacity:0.979253" id="path233"/>
      <svg:path d="m 1104.9763,386.08359 c 0.054,-0.0708 0.033,-0.26105 -0.011,-0.33382 l 0.068,-0.0924 0.1406,0.0275 c 0.07,0.0796 0.1519,0.15488 0.2384,0.21535 0.01,0.058 0.018,0.12094 0.012,0.17994 l 0.1077,0.0339 0.061,-0.0861 c 0.1617,0.10521 0.3629,0.1057 0.5339,0.19125 l 0.072,0.1534 c -0.1175,0.15978 0.015,0.39823 -0.011,0.56686 l -0.08,-0.0206 c -0.043,-0.0659 -0.1224,-0.13225 -0.1991,-0.15389 l -0.087,0.006 0.012,0.087 c 0.1008,0.11996 0.2015,0.2355 0.2851,0.36873 -0.011,0.088 0,0.18978 0.032,0.27336 l -0.061,0.0722 c -0.1878,0.0226 -0.6052,0.22026 -0.7434,0.18879 -0.1293,-0.30039 0.073,-0.52311 0.1455,-0.79253 l -0.067,-0.0604 -0.067,0.0531 c 0.014,0.28761 -0.4263,0.48624 -0.534,0.71633 l -0.1209,0.0521 -0.066,-0.13372 c -0.034,0.007 -0.066,0.0442 -0.081,0.0732 -0.1499,0.0167 -0.2532,-0.0944 -0.293,-0.22911 l -0.086,-0.0404 c -0.062,0.0202 -0.1937,0.0354 -0.2537,-0.002 l -0.019,-0.0806 c 0.037,-0.12586 0.999,-0.42773 1.1873,-0.49213 l 0.093,0.0275 -0.019,-0.0595 c 0.08,0.006 0.2054,-0.10865 0.2487,-0.16519 l 0.01,-0.12045 -0.1583,-0.24731 c -0.268,-0.12733 -0.4572,0.3009 -0.6706,0.25566 l -0.06,-0.087 c -0.085,-0.0536 -0.1962,-0.057 -0.2941,-0.0619 l -0.027,-0.0403 0.2438,-0.35792 c 0.07,-0.0196 0.1427,-0.0389 0.2145,-0.0452 0.063,0.009 0.2103,0.12783 0.3077,0.15978 z" style="fill:#fefee9;fill-rule:evenodd;stroke:#000000;stroke-width:1.39362;stroke-linejoin:round;stroke-miterlimit:3.8637;stroke-opacity:0.979253" id="path235"/>
      <svg:path d="m 1112.2763,387.96807 -0.3073,-0.0629 c 0.078,-0.48034 -0.441,-0.93265 -0.6588,-1.31761 l 0.048,-0.14602 c 0.201,-0.0959 0.7817,0.20059 0.9341,0.33924 l 0.019,0.16716 -0.089,0.17256 c -0.01,0.13767 0.1013,0.37022 0.1701,0.48132 z" style="fill:#fefee9;fill-rule:evenodd;stroke:#000000;stroke-width:1.39362;stroke-linejoin:round;stroke-miterlimit:3.8637;stroke-opacity:0.979253" id="path237"/>
      <svg:path d="m 1111.4375,388.31518 0.054,0.007 c 0.016,0.0737 0.064,0.25516 0.1239,0.30776 l -0.047,0.0197 -0.086,-0.0339 c -0.036,-0.0914 -0.052,-0.20354 -0.045,-0.30088 z" style="fill:#fefee9;fill-rule:evenodd;stroke:#000000;stroke-width:1.39362;stroke-linejoin:round;stroke-miterlimit:3.8637;stroke-opacity:0.979253" id="path239"/>
      <svg:path d="m 1112.9661,387.94645 0.1867,0.0143 c 0.3103,0.19469 0.2591,0.45871 0.055,0.71387 l -0.087,0.033 -0.1135,-0.0615 c -0.1568,-0.24188 -0.117,-0.44592 -0.041,-0.6996 z" style="fill:#fefee9;fill-rule:evenodd;stroke:#000000;stroke-width:1.39362;stroke-linejoin:round;stroke-miterlimit:3.8637;stroke-opacity:0.979253" id="path241"/>
      <svg:path d="m 1116.7133,390.43368 -0.01,-0.0929 0.074,-0.12636 0.094,-0.0463 0.038,0.1003 c 0,0.10374 -0.1229,0.13865 -0.2011,0.1652 z" style="fill:#fefee9;fill-rule:evenodd;stroke:#000000;stroke-width:1.39362;stroke-linejoin:round;stroke-miterlimit:3.8637;stroke-opacity:0.979253" id="path243"/>
      <svg:path d="m 1116.1568,391.45729 c 0.028,0.057 0,0.16323 -0.034,0.21289 l -0.2822,0.1642 -0.067,-0.0202 c 0.03,-0.10275 0.2124,-0.27335 0.2901,-0.33776 z" style="fill:#fefee9;fill-rule:evenodd;stroke:#000000;stroke-width:1.39362;stroke-linejoin:round;stroke-miterlimit:3.8637;stroke-opacity:0.979253" id="path245"/>
      <svg:path d="m 1114.6096,392.63233 -0.026,-0.0531 c 0.1248,-0.17405 0.3397,-0.33383 0.5515,-0.38299 0.027,-0.0511 0.095,-0.11996 0.1545,-0.13225 l 0.053,0.0678 c -0.2217,0.0816 -0.5541,0.33924 -0.7326,0.5005 z" style="fill:#fefee9;fill-rule:evenodd;stroke:#000000;stroke-width:1.39362;stroke-linejoin:round;stroke-miterlimit:3.8637;stroke-opacity:0.979253" id="path247"/>
      <svg:path d="m 1113.7723,392.79359 c 0.1122,-0.0383 0.2173,0.0959 0.5153,-0.0895 l 0.08,0.0202 c -0.1141,0.15635 -0.3009,0.23747 -0.4907,0.24975 l -0.1199,-0.0408 z" style="fill:#fefee9;fill-rule:evenodd;stroke:#000000;stroke-width:1.39362;stroke-linejoin:round;stroke-miterlimit:3.8637;stroke-opacity:0.979253" id="path249"/>
      <svg:path d="m 1284.466,394.42241 0.092,0.0403 0.01,0.0865 -0.047,0.0275 c -0.1568,-0.0669 -0.3481,-0.48231 -0.1347,-0.30728 z" style="fill:#fefee9;fill-rule:evenodd;stroke:#000000;stroke-width:1.39362;stroke-linejoin:round;stroke-miterlimit:3.8637;stroke-opacity:0.979253" id="path251"/>
      <svg:path d="m 1298.2031,397.36639 c -0.1514,-0.17503 -0.1297,-0.6362 0.079,-0.74092 l 0.1337,0.0802 c 0.033,0.0649 0.044,0.15486 0.034,0.22665 -0.032,0.06 -0.08,0.13963 -0.1528,0.15388 -0.087,0.0781 0.027,0.28417 -0.094,0.28024 z" style="fill:#fefee9;fill-rule:evenodd;stroke:#000000;stroke-width:1.39362;stroke-linejoin:round;stroke-miterlimit:3.8637;stroke-opacity:0.979253" id="path253"/>
      <svg:path d="m 1297.0988,397.44947 0.1072,-0.061 c 0.2223,0.0256 0,0.29302 -0.3205,0.13471 -0.021,-0.0236 -0.05,-0.0663 -0.047,-0.10079 l 0.026,-0.0531 c 0.054,-0.0423 0.1229,-0.0722 0.1873,-0.0934 z" style="fill:#fefee9;fill-rule:evenodd;stroke:#000000;stroke-width:1.39362;stroke-linejoin:round;stroke-miterlimit:3.8637;stroke-opacity:0.979253" id="path255"/>
      <svg:path d="m 1299.0669,397.52519 -0.01,-0.0605 c 0.065,-0.0659 0.1509,-0.0718 0.2345,-0.0541 0.027,0.0393 0.049,0.12094 0,0.15388 -0.063,0.0438 -0.177,0.0113 -0.2272,-0.0393 z" style="fill:#fefee9;fill-rule:evenodd;stroke:#000000;stroke-width:1.39362;stroke-linejoin:round;stroke-miterlimit:3.8637;stroke-opacity:0.979253" id="path257"/>
      <svg:path d="m 1299.3442,398.97997 -0.1072,-0.0462 c -0.011,-0.0575 0.3235,-0.62636 0.3442,-0.64897 0.023,-0.0251 0.1789,-0.25516 0.2153,-0.16717 -0.015,0.0453 -0.034,0.10472 -0.026,0.1534 l 0.061,0.0403 0.02,0.0733 c -0.032,0.032 -0.084,0.0511 -0.1268,0.0604 l -0.02,0.0467 0.027,0.11308 c -0.1087,0.11209 -0.1106,0.23795 -0.1868,0.34808 -0.067,5e-4 -0.1368,0.01 -0.2006,0.0271 z" style="fill:#fefee9;fill-rule:evenodd;stroke:#000000;stroke-width:1.39362;stroke-linejoin:round;stroke-miterlimit:3.8637;stroke-opacity:0.979253" id="path259"/>
      <svg:path d="m 1301.4091,401.16042 c 0.028,0.0369 0.039,0.0949 0.04,0.14012 l -0.04,0.06 c -0.1244,0.0305 -0.2099,0.0285 -0.328,0.088 l -0.087,-0.11358 c -5e-4,-0.0261 0.024,-0.056 0.041,-0.0732 l 0.04,0.0128 c 0.1067,-0.0374 0.228,-0.0861 0.3347,-0.11407 z" style="fill:#fefee9;fill-rule:evenodd;stroke:#000000;stroke-width:1.39362;stroke-linejoin:round;stroke-miterlimit:3.8637;stroke-opacity:0.979253" id="path261"/>
      <svg:path d="m 1291.4248,402.59898 h 0.019 c 0.088,0.084 0.1494,0.22959 0.1951,0.34022 l -0.033,0.0403 c -0.078,0.0265 -0.1879,-0.32006 -0.1809,-0.38053 z" style="fill:#fefee9;fill-rule:evenodd;stroke:#000000;stroke-width:1.39362;stroke-linejoin:round;stroke-miterlimit:3.8637;stroke-opacity:0.979253" id="path263"/>
      <svg:path d="m 1299.626,402.62651 0.041,0.17355 c 0.055,0.0472 0.1101,0.0954 0.1534,0.15388 -0.1155,0.1534 -0.3279,0.20256 -0.5005,0.26107 -0.093,-0.0501 -0.1898,-0.0939 -0.2881,-0.13324 -0.029,-0.10128 -0.1017,-0.19371 -0.2006,-0.23303 l -0.073,0.16027 -0.068,-0.0265 c -0.031,-0.0998 -0.066,-0.19715 -0.1067,-0.29351 -0.099,-0.0158 -0.2065,-0.0678 -0.3083,-0.0531 l -0.04,0.10718 c 0.055,0.0699 0.1495,0.0939 0.1947,0.17355 l -0.014,0.0802 c -0.1469,0.0389 -0.2645,0.14798 -0.4134,0.18141 -0.049,-0.0497 -0.073,-0.12094 -0.087,-0.18732 -0.076,0.0324 -0.2833,0.0978 -0.3009,0.1947 0,0 -0.2542,0.0221 -0.3349,0.0615 0,0 -0.2354,-0.0885 -0.321,-0.13324 -0.012,-0.1175 -0.021,-0.24681 -0.1017,-0.34022 -0.073,0.0364 -0.1343,0.0905 -0.2065,0.12734 -0.2655,-0.0427 -0.4008,-0.11357 -0.6835,-0.0718 -0.075,-0.0472 -0.09,-0.14848 -0.1667,-0.19371 -0.111,0.008 -0.2079,0.0718 -0.3214,0.0541 0.034,-0.10029 0.146,-0.147 0.2006,-0.23402 l -0.073,-0.0339 -0.034,-0.0924 0.02,-0.0934 c -0.3348,-0.19567 -0.2896,-0.55064 -0.096,-0.82842 l -0.1539,-0.12685 -0.2208,-0.27335 0.04,-0.1003 c 0.092,0.031 0.2021,0.0688 0.3008,0.0526 0.025,-0.15536 -0.114,-0.23599 -0.1612,-0.36726 0.026,-0.13766 0.065,-0.3122 -0.027,-0.43412 -0.081,-0.0246 -0.1637,-0.0427 -0.2477,-0.0531 -0.1259,0.0442 -0.1781,0.21042 -0.1869,0.33481 -0.268,-0.0511 -0.1893,-0.24681 -0.094,-0.41986 l -0.1204,-0.0732 c -0.06,0.0954 -0.1264,0.16618 -0.2473,0.16027 -0.1834,-0.16421 -0.1436,-0.87267 -0.1495,-1.13472 0.2827,-0.0924 0.5261,-0.28761 0.7611,-0.46313 0.1047,0 0.2173,0.0507 0.3146,0.0861 0.01,-0.0743 -0.023,-0.15438 -0.068,-0.21387 l 0.2473,-0.087 c 0.1362,0.11849 0.1868,0.30236 0.3156,0.42675 l 0.3481,0.0792 c -0.034,-0.10669 0.095,-0.43068 0.1392,-0.5413 -0.2159,-0.17109 -0.3166,-0.54623 -0.1082,-0.76156 0.072,0.0438 0.2168,0.0551 0.294,0.0197 0.3884,0.19715 0.2276,0.46116 0.1219,0.76107 0.1116,0.0452 0.2139,-0.0781 0.3009,-0.12734 -0.02,-0.11259 0.012,-0.21436 0.1199,-0.26058 l 0.079,0.006 c 0.2228,0.17847 0.3492,0.26107 0.2754,0.1057 l 0.086,-0.17355 c 0.1416,0.0467 0.4209,0.28466 0.5502,0.38643 l 0.072,-0.0669 c -0.032,-0.27336 0.4337,-0.20649 0.6018,-0.25566 0.035,0.089 -0.01,0.16814 0.021,0.24779 0.099,0.0261 0.2458,0.0684 0.3476,0.0457 0.01,0.0236 0.047,0.76501 0.043,0.77435 0.026,0.16176 0.1165,0.23992 0.2743,0.27975 l 0.073,-0.0604 0.08,-0.0128 c 0.07,0.0998 0.079,0.2242 0.1273,0.33334 0.045,-0.13127 0.2346,-0.18486 0.3211,-0.28761 l -0.041,-0.13324 0.066,-0.0934 0.1677,-0.0403 c 0.042,0.16421 0.1141,0.31515 0.2016,0.46018 l -0.087,0.0275 c 5e-4,0.12782 0.1092,0.51426 0.2154,0.58703 l 0.1745,0.68781 c -0.086,0.0821 -0.1799,0.19027 -0.3068,0.20108 l -0.1406,-0.18731 c -0.1244,-0.03 -0.3014,-0.0467 -0.4292,-0.0389 -0.034,0.061 -0.062,0.12586 -0.079,0.1937 -0.064,-0.028 -0.1278,-0.0619 -0.1868,-0.0998 l -0.087,0.0604 c -0.147,0.42724 0.3775,0.3653 0.4897,0.6534 l 0.061,0.0138 0.08,-0.0541 0.06,-0.14011 0.053,-0.1067 0.067,-0.0202 0.087,0.0531 0.2011,-0.0211 c 0.063,0.11111 0.1726,0.1942 0.2208,0.31367 -0.2086,0.25418 -0.3364,0.03 -0.5153,0.0349 l -0.047,0.0595 c -0.02,0.22075 -0.031,0.44297 -0.072,0.66126 -0.1136,0.10472 -0.269,0.14357 -0.4086,0.20158 z" style="fill:#fefee9;fill-rule:evenodd;stroke:#000000;stroke-width:1.39362;stroke-linejoin:round;stroke-miterlimit:3.8637;stroke-opacity:0.979253" id="path265"/>
      <svg:path d="m 1291.6942,403.20616 c 0.025,-0.0507 0.065,0.0949 0.067,0.10669 0.012,0.0998 0.01,0.21927 -0.048,0.30728 -0.083,0.13028 -0.501,0.51672 -0.6338,0.54916 l -0.047,-0.0531 -0.01,-0.0663 0.048,-0.0202 0.06,0.0128 c 0.1126,-0.0777 0.4711,-0.36479 0.5275,-0.45575 0.01,-0.10423 0.01,-0.28663 0.034,-0.38054 z" style="fill:#fefee9;fill-rule:evenodd;stroke:#000000;stroke-width:1.39362;stroke-linejoin:round;stroke-miterlimit:3.8637;stroke-opacity:0.979253" id="path267"/>
      <svg:path d="m 1290.8402,404.17028 c -0.2237,0.0497 -0.4267,0.15143 -0.6549,0.17552 l -0.01,-0.0541 c 0.144,-0.0113 0.3004,-0.0924 0.4346,-0.1411 l 0.022,-0.0133 c 0.038,-0.0231 0.2871,-0.0846 0.206,0.033 z" style="fill:#fefee9;fill-rule:evenodd;stroke:#000000;stroke-width:1.39362;stroke-linejoin:round;stroke-miterlimit:3.8637;stroke-opacity:0.979253" id="path269"/>
      <svg:path d="m 1290.0236,404.33302 c -0.5748,0.17157 -0.3786,0.44051 -0.827,0.70993 -0.078,-4.9e-4 -0.1067,0.005 -0.1809,-0.0398 l -0.012,-0.0531 0.046,-0.0669 0.1475,0.0192 c 0.3083,-0.10521 0.3392,-0.7301 0.827,-0.56932 z" style="fill:#fefee9;fill-rule:evenodd;stroke:#000000;stroke-width:1.39362;stroke-linejoin:round;stroke-miterlimit:3.8637;stroke-opacity:0.979253" id="path271"/>
      <svg:path d="m 1342.6401,406.63294 0.02,-0.0467 c 0.087,-0.0413 0.2405,-0.20404 0.1736,-0.31367 -0.044,-0.0305 -0.086,-0.007 -0.092,-0.0202 l 0.033,-0.0265 0.1003,0.006 c 0.09,0.16667 -0.029,0.42086 -0.2345,0.4007 z" style="fill:#fefee9;fill-rule:evenodd;stroke:#000000;stroke-width:1.39362;stroke-linejoin:round;stroke-miterlimit:3.8637;stroke-opacity:0.979253" id="path273"/>
      <svg:path d="m 1342.6932,406.92006 0.014,0.16077 c -0.075,0.0383 -0.1922,0.0427 -0.2665,0 l -0.041,-0.06 0.053,-0.0934 c 0.055,-0.0261 0.1254,-0.0442 0.1869,-0.0403 z" style="fill:#fefee9;fill-rule:evenodd;stroke:#000000;stroke-width:1.39362;stroke-linejoin:round;stroke-miterlimit:3.8637;stroke-opacity:0.979253" id="path275"/>
      <svg:path d="m 1369.2485,419.56717 c -0.026,-0.0359 -0.02,-0.10177 -0.01,-0.14061 l 0.1947,-0.0339 c 0.044,0.0575 0.1101,0.091 0.1125,0.17404 l -0.073,0.006 -0.053,-0.06 z" style="fill:#fefee9;fill-rule:evenodd;stroke:#000000;stroke-width:1.39362;stroke-linejoin:round;stroke-miterlimit:3.8637;stroke-opacity:0.979253" id="path277"/>
      <svg:path d="m 1369.6556,420.38231 -0.1338,-0.0403 c -0.033,-0.10866 -0.07,-0.1947 -0.046,-0.31367 0.068,-0.0743 0.1161,-0.0453 0.1938,-0.0531 0.037,-0.0255 0.07,-0.0634 0.093,-0.10079 -0.01,-0.13077 -0.088,-0.13373 -0.1333,-0.22025 l 0.033,-0.0403 c 0.058,0.002 0.1181,0.0128 0.1741,0.0265 0.04,0.0369 0.068,0.0963 0.08,0.14749 -0.1323,0.17355 -0.2921,0.36382 -0.2616,0.5944 z" style="fill:#fefee9;fill-rule:evenodd;stroke:#000000;stroke-width:1.39362;stroke-linejoin:round;stroke-miterlimit:3.8637;stroke-opacity:0.979253" id="path279"/>
      <svg:path d="m 1266.7687,432.52746 c -0.175,-0.0413 -0.3501,-0.0983 -0.5079,-0.18536 l 0.026,-0.0998 c 0.2217,-0.0427 0.353,0.0113 0.5088,0.16519 l 0.02,0.087 z" style="fill:#fefee9;fill-rule:evenodd;stroke:#000000;stroke-width:1.39362;stroke-linejoin:round;stroke-miterlimit:3.8637;stroke-opacity:0.979253" id="path281"/>
      <svg:path d="m 1162.4822,438.67303 0.1269,0.0644 0.074,-0.0137 c 0.078,-0.14602 0.06,-0.35055 0.079,-0.51524 l 0.06,-0.0339 0.068,0.0855 c -0.012,0.13127 -0.018,0.38349 -0.094,0.48871 l -0.1194,0.0615 c -0.041,-0.006 -0.2384,-0.0919 -0.2016,-0.1303 z" style="fill:#fefee9;fill-rule:evenodd;stroke:#000000;stroke-width:1.39362;stroke-linejoin:round;stroke-miterlimit:3.8637;stroke-opacity:0.979253" id="path283"/>
      <svg:path d="m 1169.3431,440.78367 c -0.1175,-0.0349 -0.2375,-0.0619 -0.3481,-0.11505 0.057,-0.0452 0.354,-0.056 0.4661,-0.0728 l 0.085,-0.0747 0.032,-0.16077 c -0.03,-0.0373 -0.036,-0.10128 -0.03,-0.14602 l 0.094,0.0315 0.041,0.11307 c -0.069,0.17258 -0.1229,0.39579 -0.3412,0.42479 z" style="fill:#fefee9;fill-rule:evenodd;stroke:#000000;stroke-width:1.39362;stroke-linejoin:round;stroke-miterlimit:3.8637;stroke-opacity:0.979253" id="path285"/>
      <svg:path d="m 1436.8892,445.47545 -0.067,-0.0604 -0.025,-0.087 c 0.1042,0.0206 0.2148,-0.003 0.3264,0.0152 0.025,0.0423 0.026,0.10619 0.021,0.15339 -0.098,-4.9e-4 -0.1598,-0.003 -0.2547,-0.0211 z" style="fill:#fefee9;fill-rule:evenodd;stroke:#000000;stroke-width:1.39362;stroke-linejoin:round;stroke-miterlimit:3.8637;stroke-opacity:0.979253" id="path287"/>
      <svg:path d="m 1166.7595,445.67702 0.042,0.0442 v 0.12979 c -0.4591,0.13619 -1.7596,0.95674 -1.9597,0.97838 v -0.17355 c 0.619,-0.24386 1.2581,-0.86874 1.9165,-0.97887 z" style="fill:#fefee9;fill-rule:evenodd;stroke:#000000;stroke-width:1.39362;stroke-linejoin:round;stroke-miterlimit:3.8637;stroke-opacity:0.979253" id="path289"/>
      <svg:path d="m 1433.3001,446.39237 c 0.119,0.0654 0.1987,0.50886 0.4848,0.6765 0.2006,0.11751 1.173,0.27091 1.3157,-0.008 l 0.061,-0.0202 0.026,0.0531 c -0.1471,0.40118 -1.2975,0.19076 -1.5895,0.0487 -0.096,-0.15094 -0.213,-0.32105 -0.2724,-0.48968 -0.01,-0.0231 -0.055,-0.24238 -0.052,-0.25419 z" style="fill:#fefee9;fill-rule:evenodd;stroke:#000000;stroke-width:1.39362;stroke-linejoin:round;stroke-miterlimit:3.8637;stroke-opacity:0.979253" id="path291"/>
      <svg:path d="m 1435.6212,446.94891 c -0.073,-0.003 -0.147,-4.8e-4 -0.2198,0.005 -0.062,-0.0541 -0.146,-0.0988 -0.2256,-0.12095 l -0.1013,0.033 c -0.038,0.0615 -0.062,0.14749 -0.06,0.22026 -0.07,0.0575 -0.3088,0.0103 -0.4017,0.0123 -0.6008,0.0113 -1.1136,-0.0172 -1.1922,-0.77287 0.3004,-0.20158 0.644,-0.31514 0.9297,-0.53885 0.2944,-0.23009 0.5113,-0.53834 0.7777,-0.79892 0.012,-0.14651 0.029,-0.30531 0.1028,-0.43462 0.2424,-0.15388 1.2517,-0.31366 1.5226,-0.20157 l 0.1529,0.26746 c 0.047,0.32792 -0.348,0.78122 -0.1779,1.10276 l 0.087,0.0403 c 0.1239,-0.0158 0.2384,-0.0418 0.3603,-0.0718 -0.016,0.29499 -0.086,0.56539 -0.062,0.86873 -0.049,0.0802 -0.1332,0.10375 -0.1879,0.16717 -0.203,0.235 -0.14,0.4946 -0.5624,0.66569 -0.3456,0.0354 -0.5432,-0.21485 -0.7414,-0.44347 z" style="fill:#fefee9;fill-rule:evenodd;stroke:#000000;stroke-width:1.39362;stroke-linejoin:round;stroke-miterlimit:3.8637;stroke-opacity:0.979253" id="path293"/>
      <svg:path d="m 1436.0804,447.49906 -0.01,0.0467 -0.093,0.006 -0.4262,-0.27582 c -0.011,-0.0299 -0.058,-0.28711 -0.066,-0.2945 l 0.087,0.006 c 0.097,0.1416 0.3063,0.49952 0.5045,0.51082 z" style="fill:#fefee9;fill-rule:evenodd;stroke:#000000;stroke-width:1.39362;stroke-linejoin:round;stroke-miterlimit:3.8637;stroke-opacity:0.979253" id="path295"/>
      <svg:path d="m 857.22392,405.55279 -0.11899,-0.085 -0.0339,-0.1534 c 0.0423,-0.0743 0.17207,-0.14257 0.25565,-0.14454 l 0.10226,0.11111 v 0.15339 c -0.0379,0.0522 -0.13618,0.12144 -0.20501,0.11849 z" style="fill:#fefee9;fill-rule:evenodd;stroke:#000000;stroke-width:1.39362;stroke-linejoin:round;stroke-miterlimit:3.8637;stroke-opacity:0.979253" id="path297"/>
      <svg:path d="m 1166.6666,440.46508 -0.042,-0.16175 0.1107,-0.0934 h 0.1189 c 0,0.0855 0.05,0.21779 0.1111,0.28122 l -0.034,0.0767 c -0.081,0.0108 -0.2119,-0.0403 -0.2645,-0.10275 z" style="fill:#fefee9;fill-rule:evenodd;stroke:#000000;stroke-width:1.39362;stroke-linejoin:round;stroke-miterlimit:3.8637;stroke-opacity:0.979253" id="path299"/>
      <svg:path d="m 1208.7505,378.56977 c 0.1146,-0.10669 0.2808,-0.15487 0.4341,-0.16175 l 0.085,0.11946 c -0.1381,0.0915 -0.3668,0.0875 -0.5197,0.0423 z" style="fill:#fefee9;fill-rule:evenodd;stroke:#000000;stroke-width:1.39362;stroke-linejoin:round;stroke-miterlimit:3.8637;stroke-opacity:0.979253" id="path301"/>
      <svg:polygon points="1089.501,412.699 1089.535,412.336 1089.76,412.215 1089.899,412.474 1089.778,412.752 1089.535,412.578 " style="fill:#fefee9;fill-rule:evenodd;stroke:#000000;stroke-width:2.8346;stroke-linejoin:round;stroke-miterlimit:3.8637;stroke-opacity:0.979253" id="polygon303" transform="matrix(0.4916463,0,0,0.4916463,681.27846,179.27062)"/>
      <svg:path d="m 1270.3568,431.01958 -0.1107,-0.0934 0.042,-0.16175 0.1618,-0.0427 0.1194,0.085 0.06,0.14454 c -0.081,0.0413 -0.1824,0.0678 -0.2728,0.0684 z" style="fill:#fefee9;fill-rule:evenodd;stroke:#000000;stroke-width:1.39362;stroke-linejoin:round;stroke-miterlimit:3.8637;stroke-opacity:0.979253" id="path305"/>
      <svg:polygon points="720.428,420.876 720.636,420.686 720.758,420.842 720.723,421.206 720.567,421.466 720.307,421.621 720.151,421.57 720.151,421.327 720.203,421.05 " style="fill:#fefee9;fill-rule:evenodd;stroke:#000000;stroke-width:2.8346;stroke-linejoin:round;stroke-miterlimit:3.8637;stroke-opacity:0.979253" id="polygon307" transform="matrix(0.4916463,0,0,0.4916463,681.27846,179.27062)"/>
      <svg:polygon points="719.424,420.218 719.753,420.218 719.944,420.409 719.944,420.738 719.632,420.963 719.337,420.842 719.146,420.651 719.146,420.322 " style="fill:#fefee9;fill-rule:evenodd;stroke:#000000;stroke-width:2.8346;stroke-linejoin:round;stroke-miterlimit:3.8637;stroke-opacity:0.979253" id="polygon309" transform="matrix(0.4916463,0,0,0.4916463,681.27846,179.27062)"/>
      <svg:polygon points="732.642,410.499 732.694,410.222 733.023,410.135 733.335,410.135 733.664,410.222 733.872,410.413 733.698,410.656 733.387,410.742 733.179,410.777 732.902,410.656 " style="fill:#fefee9;fill-rule:evenodd;stroke:#000000;stroke-width:2.8346;stroke-linejoin:round;stroke-miterlimit:3.8637;stroke-opacity:0.979253" id="polygon311" transform="matrix(0.4916463,0,0,0.4916463,681.27846,179.27062)"/>
      <svg:polygon points="733.422,404.315 733.664,404.159 733.906,404.003 734.115,404.194 734.115,404.523 733.993,404.8 733.698,404.921 733.387,404.834 733.179,404.8 733.248,404.557 " style="fill:#fefee9;fill-rule:evenodd;stroke:#000000;stroke-width:2.8346;stroke-linejoin:round;stroke-miterlimit:3.8637;stroke-opacity:0.979253" id="polygon313" transform="matrix(0.4916463,0,0,0.4916463,681.27846,179.27062)"/>
      <svg:polygon points="731.81,407.121 731.724,407.45 731.325,407.537 731.204,407.26 731.204,406.844 731.481,406.723 731.655,406.896 " style="fill:#fefee9;fill-rule:evenodd;stroke:#000000;stroke-width:2.8346;stroke-linejoin:round;stroke-miterlimit:3.8637;stroke-opacity:0.979253" id="polygon315" transform="matrix(0.4916463,0,0,0.4916463,681.27846,179.27062)"/>
      <svg:polygon points="554.394,415.229 554.429,414.952 554.672,414.796 555.001,414.882 555.122,415.159 554.931,415.35 " style="fill:#fefee9;fill-rule:evenodd;stroke:#000000;stroke-width:2.8346;stroke-linejoin:round;stroke-miterlimit:3.8637;stroke-opacity:0.979253" id="polygon317" transform="matrix(0.4916463,0,0,0.4916463,681.27846,179.27062)"/>
      <svg:path d="m 947.79696,382.35151 v -0.15339 c 0.0394,-0.0639 0.14946,-0.1244 0.22124,-0.13619 0.0787,0.0398 0.15782,0.10177 0.21289,0.1706 l -0.0339,0.15339 -0.16175,0.0423 z" style="fill:#fefee9;fill-rule:evenodd;stroke:#000000;stroke-width:1.39362;stroke-linejoin:round;stroke-miterlimit:3.8637;stroke-opacity:0.979253" id="path319"/>
      <svg:path d="m 777.11851,363.25596 c -0.17995,-0.89085 0.77237,-0.78712 1.31171,-0.97985 l 0.0255,-0.0167 0.11898,-0.0172 c 0.81466,-0.11653 0.5236,0.65535 1.17553,0.86037 0.441,0.13864 1.04032,0.01 1.40561,0.37464 0.68782,0.68781 -0.83727,1.07375 -1.31171,0.94544 -0.59735,-0.16126 -0.88644,-0.75862 -1.43069,-0.94544 -0.41888,-0.14356 -0.99657,0.20452 -1.295,-0.22125 z" style="fill:#fefee9;fill-rule:evenodd;stroke:#000000;stroke-width:1.39362;stroke-linejoin:round;stroke-miterlimit:3.8637;stroke-opacity:0.979253" id="path321"/>
      <svg:path d="m 1137.0036,401.74892 -0.027,-0.0403 -0.067,0.0265 c -0.039,-0.0246 -0.096,-0.0472 -0.1,-0.0998 l 0.1,-0.0329 0.067,0.0329 z" style="fill:#fefee9;fill-rule:evenodd;stroke:#000000;stroke-width:1.39362;stroke-linejoin:round;stroke-miterlimit:3.8637;stroke-opacity:0.979253" id="path331"/>
      <svg:path d="m 1134.129,396.70168 0.048,-0.0467 0.073,8.9e-4 0.027,0.0934 c -0.019,0.059 -0.089,0.09 -0.1412,0.11308 l -0.021,-0.0541 c 0.015,-0.031 0.018,-0.0728 0.014,-0.10669 z" style="fill:#fefee9;fill-rule:evenodd;stroke:#000000;stroke-width:1.39362;stroke-linejoin:round;stroke-miterlimit:3.8637;stroke-opacity:0.979253" id="path333"/>
    </svg:g>
  </svg:g>
</svg:svg></g>
</svg>
