<?xml version="1.0" encoding="utf-8"?>
<svg xmlns="http://www.w3.org/2000/svg" fill="none" version="1.1" viewBox="-1 -2835.65 2836.65 2836.65" x="-1pt" y="-2835.65pt" width="2836.65pt" height="2836.65pt" stroke-width="0.566929" stroke-miterlimit="10.000000">
 <path d="M0 -0L2834.65 -0L2834.65 -2834.65L0 -2834.65Z" fill="#fff"/>
 <g fill="black" transform="matrix(3.571429,-0.000000,-0.000000,3.571429,0.000000,-2834.645669)"><svg:svg xmlns:inkscape="http://www.inkscape.org/namespaces/inkscape" xmlns:sodipodi="http://sodipodi.sourceforge.net/DTD/sodipodi-0.dtd" xmlns="http://www.w3.org/2000/svg" xmlns:svg="http://www.w3.org/2000/svg" width="210mm" height="210mm" viewBox="0 0 210 210" version="1.1" id="svg5" inkscape:version="1.1 (c68e22c387, 2021-05-23)" sodipodi:docname="northernmariana.svg">
  <sodipodi:namedview id="namedview7" pagecolor="#ffffff" bordercolor="#666666" borderopacity="1.0" inkscape:pageshadow="2" inkscape:pageopacity="0.0" inkscape:pagecheckerboard="0" inkscape:document-units="mm" showgrid="false" inkscape:zoom="1.0998546" inkscape:cx="642.81224" inkscape:cy="373.23115" inkscape:window-width="2560" inkscape:window-height="1387" inkscape:window-x="1432" inkscape:window-y="1588" inkscape:window-maximized="1" inkscape:current-layer="Northern_Mariana_Islands"/>
  <svg:defs id="defs2"/>
  <svg:g inkscape:label="Layer 1" inkscape:groupmode="layer" id="layer1">
    <svg:g id="layer" transform="matrix(0.26458333,0,0,0.26458333,-174.03077,1.8732049)">
      <svg:g id="Northern_Mariana_Islands" transform="translate(781.47734,-2.2539284)">
			 
			<svg:path d="m 215.28032,29.880701 1.22448,-0.239486 0.58379,0.336968 c 0.0141,0.387965 -0.2316,0.997956 -0.52913,1.253783 h -0.79678 c -0.0772,-0.447409 -0.25189,-0.95851 -0.48236,-1.351265 z" style="fill:#000000;fill-rule:evenodd;stroke:none;stroke-width:2.28996;stroke-linejoin:round;stroke-miterlimit:3.86369;stroke-opacity:1;fill-opacity:1" id="path9"/>

			<svg:path d="m 250.76534,88.015996 c 0.0491,0.30062 -0.0868,1.12925 0.15835,1.30392 -0.0727,0.0893 -0.1482,0.18343 -0.23667,0.25837 -0.3336,-0.54913 -0.27781,-1.06923 0.0784,-1.56229 z" style="fill:#000000;fill-rule:evenodd;stroke:none;stroke-width:2.28996;stroke-linejoin:round;stroke-miterlimit:3.86369;stroke-opacity:1;fill-opacity:1" id="path11"/>

			<svg:path d="m 252.59388,89.814666 c -0.0242,-0.44797 0.0862,-0.88891 0.0552,-1.32929 l 0.45079,-0.18286 c 0.18538,0.31134 0.16398,0.82806 0,1.14671 -0.17862,0.10371 -0.34936,0.23105 -0.50601,0.36544 z" style="fill:#000000;fill-rule:evenodd;stroke:none;stroke-width:2.28996;stroke-linejoin:round;stroke-miterlimit:3.86369;stroke-opacity:1;fill-opacity:1" id="path13"/>

			<svg:path d="m 270.53896,125.61271 -0.31612,-0.0569 c 0.12848,-0.36599 0.22539,-0.85652 0.18483,-1.2473 0.28456,-0.44121 0.46431,-0.71732 0.84355,-1.05233 0.98894,-0.29161 1.8556,0.69563 2.03478,1.57836 -0.10813,0.40008 -0.26991,0.72944 -0.47277,1.08388 -0.60181,0.46122 -1.80093,0.23837 -2.27427,-0.30569 z" style="fill:#000000;fill-rule:evenodd;stroke:none;stroke-width:2.28996;stroke-linejoin:round;stroke-miterlimit:3.86369;stroke-opacity:1;fill-opacity:1" id="path15"/>

			<svg:path d="m 300.68317,227.15323 0.18483,0.7055 c 0.41361,0.28626 0.95232,0.43502 1.33774,0.7055 0.75171,0.528 0.74438,3.00569 0.80693,3.85601 -0.41981,0.14932 -0.42037,1.21545 -0.34936,1.56256 -0.20962,0.64464 -0.92357,0.74325 -1.52595,0.82834 -0.27104,0.34598 -0.36233,0.80861 -0.66381,1.12136 -3.22939,0.84467 -4.83029,-6.56022 -2.58419,-8.29071 l 0.39783,-0.10087 c 0.10144,-0.3133 0.18483,-0.49869 0.15947,-0.83509 z" style="fill:#000000;fill-rule:evenodd;stroke:none;stroke-width:2.28996;stroke-linejoin:round;stroke-miterlimit:3.86369;stroke-opacity:1;fill-opacity:1" id="path17"/>

			<svg:path d="m 306.23699,312.84571 c -0.29415,-0.0761 -0.61027,-0.15834 -0.91681,-0.15721 0.16566,-0.64633 1.17376,-3.3945 1.45438,-3.82444 0.0541,-0.0829 0.65309,-0.42094 0.73198,-0.46601 1.877,0.61083 3.30096,-3.13923 3.16628,-4.5677 -0.0789,-0.84356 -0.3195,-1.49721 -0.46714,-2.32499 0.21807,-0.80016 0.6469,-1.43916 1.10953,-2.10747 2.07422,-0.62098 5.91276,1.30449 4.62743,3.76472 -0.38769,0.741 -0.73593,1.6533 -1.29323,2.28667 l -0.10928,1.09319 -0.15665,0.0254 -0.49757,-0.67732 c -0.52348,-0.21075 -1.62455,-0.1899 -1.99308,0.30542 -0.57082,0.76523 -1.42396,1.6471 -1.86855,2.4698 -1.00472,1.85954 0.0411,2.11818 -2.76225,3.5844 -0.34881,0.18255 -0.68409,0.39781 -1.02501,0.59559 z" style="fill:#000000;fill-rule:evenodd;stroke:none;stroke-width:2.28996;stroke-linejoin:round;stroke-miterlimit:3.86369;stroke-opacity:1;fill-opacity:1" id="path19"/>

			<svg:path d="m 318.18704,361.33227 c 0.15891,0.15158 1.73612,1.09712 1.90518,1.17827 l 0.23272,0.6238 c -0.10928,1.38113 -1.62625,2.00154 -2.80339,2.07592 -0.23159,-0.52743 -0.45981,-1.05543 -0.67225,-1.59075 0.32514,-1.03402 0.4632,-1.5406 1.33774,-2.28724 z" style="fill:#000000;fill-rule:evenodd;stroke:none;stroke-width:2.28996;stroke-linejoin:round;stroke-miterlimit:3.86369;stroke-opacity:1;fill-opacity:1" id="path21"/>

			<svg:path d="m 319.02383,397.01677 c -0.26765,-0.61647 0.12115,-1.40424 0.64747,-1.75473 0.11274,0.0287 0.32738,0.3302 0.33246,0.44742 0.21638,-0.0727 0.47841,-0.1296 0.6576,0.0473 -0.0305,0.76354 -0.28345,1.07347 -0.83567,1.50229 -0.33021,-0.053 -0.53533,-0.058 -0.80186,-0.24232 z" style="fill:#000000;fill-rule:evenodd;stroke:none;stroke-width:2.28996;stroke-linejoin:round;stroke-miterlimit:3.86369;stroke-opacity:1;fill-opacity:1" id="path23"/>

			<svg:path d="m 320.47991,444.07655 0.0766,0.70212 c -0.14426,0.25019 -0.60013,0.5094 -0.86047,0.59561 l -0.33585,-0.0789 -0.13186,-0.36515 c 0.0485,-0.27385 0.27104,-0.73423 0.52462,-0.88187 z" style="fill:#000000;fill-rule:evenodd;stroke:none;stroke-width:2.28996;stroke-linejoin:round;stroke-miterlimit:3.86369;stroke-opacity:1;fill-opacity:1" id="path25"/>

			<svg:path d="m 312.60167,465.38345 c -0.25188,-0.49983 -0.67619,-0.94949 -0.87849,-1.45833 l 0.3674,-0.67731 c 0.37022,-0.0885 0.5883,-0.41586 0.93541,-0.49137 0.213,0.98443 0.44121,1.73839 0.61533,2.7848 l -0.2344,0.10421 c -0.17076,-0.20569 -0.56069,-0.20682 -0.80525,-0.26204 z" style="fill:#000000;fill-rule:evenodd;stroke:none;stroke-width:2.28996;stroke-linejoin:round;stroke-miterlimit:3.86369;stroke-opacity:1;fill-opacity:1" id="path27"/>

			<svg:path d="m 304.95109,503.3901 0.17806,0.51955 c -5.6e-4,0.57702 -0.80974,1.64992 -1.27462,2.02577 -0.96133,0.21187 -3.30603,-0.4739 -3.96814,0.27668 l -0.0254,-0.23273 c -0.36232,-0.0895 -1.02951,0.0276 -1.29943,0.3088 -0.56574,0.0676 -2.62983,-0.82214 -2.90143,-1.35803 0.026,-0.71282 -0.008,-1.56877 0.3195,-2.21116 0.66042,-0.8165 4.41049,-0.0512 4.61841,-0.0946 1.82178,-0.37923 1.39296,-0.33415 2.902,0.18877 0.50828,0.17638 0.99965,0.25132 1.451,0.57702 z" style="fill:#000000;fill-rule:evenodd;stroke:none;stroke-width:2.28996;stroke-linejoin:round;stroke-miterlimit:3.86369;stroke-opacity:1;fill-opacity:1" id="path29"/>

			<svg:path d="m 344.15968,542.40712 1.34281,-0.28964 c 0.071,0.15665 0.10259,0.35162 0.0997,0.52292 -0.56236,0.53532 -1.13488,0.55954 -1.40536,1.39577 l -0.46319,0.20456 c -0.0451,0.18088 -0.26935,0.41022 -0.44573,0.46601 l -0.0749,-0.15722 c 0.56631,-0.94554 0.71,-0.98555 0.94667,-2.1424 z" style="fill:#000000;fill-rule:evenodd;stroke:none;stroke-width:2.28996;stroke-linejoin:round;stroke-miterlimit:3.86369;stroke-opacity:1;fill-opacity:1" id="path31"/>

			<svg:path d="m 309.55147,647.2872 c -0.84356,-2.11142 -3.30942,-0.85595 -3.96138,-1.1501 -0.25301,-0.59279 -1.52426,-1.4679 -2.04492,-1.7767 -0.007,-0.0496 -0.0569,-0.31668 -0.0485,-0.33978 0.27949,-0.77706 0.64125,-1.59582 0.86046,-2.3881 0.15496,-0.56181 0.10594,-1.31295 0.30936,-1.84601 0.10987,-0.28851 0.72353,-0.9247 0.86835,-1.24083 0.39783,-0.86778 0.65253,-2.13339 0.81875,-3.0902 -0.41191,-1.07685 -0.3071,-0.6469 -0.2344,-1.85559 l 0.34261,-0.41248 0.23272,0.0817 0.57251,-0.35896 0.10144,0.23611 c 0.42543,-0.33415 2.22242,-2.4405 2.74704,-2.41289 l 0.23779,-0.41304 c 4.02674,-1.11065 3.28686,-4.17833 6.22437,-5.13119 0.56969,0.23272 1.309,0.91511 1.5575,1.48368 l 0.56744,0.18876 c 0.0761,0.36909 -0.007,1.74797 -0.36458,1.9249 -0.21582,-0.213 -1.25266,-0.11378 -1.52369,-0.0727 l -0.33302,1.48086 0.20004,0.52575 -0.13298,0.28344 c -0.89878,0.1837 -1.15066,1.26618 -2.29625,1.55976 -0.29753,0.65816 -0.6531,1.37155 -0.8289,2.07592 l 0.19666,0.78438 -0.45136,0.69593 0.0152,0.88806 0.63563,0.63337 0.0913,0.94217 0.15158,0.21075 0.82384,0.32458 0.0665,0.70268 c -0.62266,0.57477 -0.57251,0.72522 -0.76861,1.45213 l -1.49777,-0.25526 c -0.22258,-0.36008 -0.48855,-0.73029 -0.68015,-1.10558 -0.62548,-0.29753 -1.66061,0.30316 -2.13001,0.64858 l -0.60575,1.24137 c 0.0991,1.13207 0.25696,1.84377 1.45945,2.39373 -0.0749,1.03796 -0.64351,1.9497 -0.66097,2.9144 l -0.20794,0.25808 c -0.0485,-0.0135 -0.27218,-0.0919 -0.30937,-0.0817 z" style="fill:#000000;fill-rule:evenodd;stroke:none;stroke-width:2.28996;stroke-linejoin:round;stroke-miterlimit:3.86369;stroke-opacity:1;fill-opacity:1" id="path33"/>

			<svg:path d="m 300.39861,663.02168 c 0.29527,0.27385 0.30317,0.50264 0.35106,0.86328 -0.4029,0.22033 -0.63337,0.1606 -1.11178,0.142 -0.4925,1.67133 -0.57364,1.48651 -1.84826,2.89806 l -0.64239,-0.27104 c -0.36965,-0.2006 -0.0625,-3.64243 -0.89314,-4.68095 -0.28738,-0.17018 -0.79116,-0.38318 -1.02669,-0.6114 -0.55392,-0.53533 -0.0997,-2.07141 -1.28477,-2.34076 l -0.80185,0.2778 -0.20624,-0.0823 c -0.31613,-0.44178 -0.66492,-0.90554 -0.91174,-1.3924 l 0.23949,-0.49475 c 0.094,-0.3674 -0.34261,-1.02274 -0.57927,-1.2566 0.17017,-1.65555 1.99703,-3.02484 1.60596,-4.12647 0.18708,-0.4987 0.72127,-0.81707 0.97147,-1.26618 0.96301,-1.72711 2.75718,-2.55038 3.7788,-4.25327 0.0327,-0.0541 0.13524,-0.11275 0.18483,-0.15383 2.57743,0.25301 1.33717,3.59398 1.89165,4.98017 0.005,0.4029 -0.7641,1.11009 -1.0481,1.31689 -0.29583,1.65273 0.34373,3.28011 2.17284,3.67907 0.32401,0.59111 0.56744,1.59413 0.35444,2.27426 -0.47504,1.51862 -0.89654,2.94258 -1.19631,4.49839 z" style="fill:#000000;fill-rule:evenodd;stroke:none;stroke-width:2.28996;stroke-linejoin:round;stroke-miterlimit:3.86369;stroke-opacity:1;fill-opacity:1" id="path35"/>

			<svg:path d="m 290.52673,673.35113 c 0.27893,0.0315 0.70211,0.24625 0.86891,0.47897 l -0.0535,0.3905 -1.7784,1.726 c -0.8582,-0.0456 -2.1458,0.47559 -2.38133,0.43783 l -0.4091,-0.31781 -0.093,-0.73086 0.39557,-0.72465 c 0.84695,-0.43446 2.93922,-0.76523 3.45087,-1.25998 z" style="fill:#000000;fill-rule:evenodd;stroke:none;stroke-width:2.28996;stroke-linejoin:round;stroke-miterlimit:3.86369;stroke-opacity:1;fill-opacity:1" id="path37"/>

			<svg:path d="m 255.18484,748.71417 c 1.42058,0.72353 3.38492,0.41361 4.59192,1.3862 0.0462,0.15665 -0.32401,2.75042 -0.34598,3.04964 l -0.78382,1.08642 c -0.73875,0.29753 -1.5992,-0.15721 -2.2692,0.0254 l -1.93505,0.52575 -0.9416,1.39577 0.0895,0.89145 c -0.17919,0.25076 -0.68464,0.42487 -0.97992,0.40347 -0.16228,0.34824 -0.7269,1.24927 -1.15122,1.34506 -0.61365,-0.37472 -1.63921,0.38205 -2.47262,-0.0287 -0.49306,0.28456 -1.62062,0.75847 -2.21961,0.65253 l -0.2795,-0.34373 c 0.0789,-0.44629 0.18822,-1.49158 -0.001,-1.9311 -0.38487,-0.26484 -1.70909,-1.08473 -2.20327,-1.01712 -1.1067,0.42487 -1.54623,2.44557 -2.70703,2.57969 -0.085,-0.33359 -0.0451,-0.98669 0.16961,-1.27576 0.34993,-0.46939 0.97034,-0.81481 1.30168,-1.29153 0.87454,-1.26055 1.58623,-2.59997 2.54193,-3.83347 1.44706,-0.50995 1.9914,0.25752 4.51248,-0.73085 1.2211,-0.47897 1.91589,-1.23461 2.9082,-1.97506 0.31274,-0.23329 0.85876,-0.41755 1.21827,-0.63957 0.0733,-0.0456 0.82214,-0.23553 0.95682,-0.27441 z" style="fill:#000000;fill-rule:evenodd;stroke:none;stroke-width:2.28996;stroke-linejoin:round;stroke-miterlimit:3.86369;stroke-opacity:1;fill-opacity:1" id="path39"/>

			
			
		</svg:g>
    </svg:g>
  </svg:g>
</svg:svg></g>
</svg>
