<?xml version="1.0" encoding="utf-8"?>
<svg xmlns="http://www.w3.org/2000/svg" fill="none" version="1.1" viewBox="-1 -2835.65 2836.65 2836.65" x="-1pt" y="-2835.65pt" width="2836.65pt" height="2836.65pt" stroke-width="0.566929" stroke-miterlimit="10.000000">
 <path d="M0 -0L2834.65 -0L2834.65 -2834.65L0 -2834.65Z" fill="#fff"/>
 <g fill="black" transform="matrix(3.571429,-0.000000,-0.000000,2.525253,0.000000,-2834.645669)"><svg:svg xmlns:inkscape="http://www.inkscape.org/namespaces/inkscape" xmlns:sodipodi="http://sodipodi.sourceforge.net/DTD/sodipodi-0.dtd" xmlns="http://www.w3.org/2000/svg" xmlns:svg="http://www.w3.org/2000/svg" width="210mm" height="297mm" viewBox="0 0 210 297" version="1.1" id="svg5" inkscape:version="1.1 (c68e22c387, 2021-05-23)" sodipodi:docname="tuvalu.svg">
  <sodipodi:namedview id="namedview7" pagecolor="#ffffff" bordercolor="#666666" borderopacity="1.0" inkscape:pageshadow="2" inkscape:pageopacity="0.0" inkscape:pagecheckerboard="0" inkscape:document-units="mm" showgrid="false" inkscape:zoom="1.0998546" inkscape:cx="310.04098" inkscape:cy="640.53921" inkscape:window-width="2560" inkscape:window-height="1387" inkscape:window-x="1432" inkscape:window-y="1588" inkscape:window-maximized="1" inkscape:current-layer="g835"/>
  <svg:defs id="defs2"/>
  <svg:g inkscape:label="Layer 1" inkscape:groupmode="layer" id="layer1">
    <svg:g transform="matrix(0.33984899,0,0,0.33984899,-155.06787,-28.633369)" id="g835" style="fill:#ff0000;fill-opacity:1;stroke:#500000;stroke-opacity:1">
      <svg:path id="TV" title="Tuvalu" class="land" d="m 1070.1623,841.824 0.39,-12.39 -3.51,-7.32 -1.65,-0.72 3.48,8.76 0.75,12.99 z" style="fill:#000000;fill-opacity:1;stroke:none;stroke-width:27px;stroke-opacity:1"/>
      <svg:path id="path825" title="Tuvalu" class="land" d="m 480.95234,354.084 -0.18,-2.64 -1.86,-4.38 0.18,1.41 1.26,3 0.15,1.47 v 1.86 z" style="fill:#000000;fill-opacity:1;stroke:none;stroke-width:27px;stroke-opacity:1"/>
      <svg:path id="path827" title="Tuvalu" class="land" d="m 812.03234,422.244 -0.45,-6.3 -1.44,-5.52 -1.77,-0.63 -14.64,-12.99 1.74,6.12 9.39,17.82 5.49,4.56 z" style="fill:#000000;fill-opacity:1;stroke:none;stroke-width:27px;stroke-opacity:1"/>
      <svg:path id="path829" title="Tuvalu" class="land" d="m 745.45234,519.154 -4.74,8.13 -4.86,10.77 -1.38,8.28 4.59,0.63 z" style="fill:#000000;fill-opacity:1;stroke:none;stroke-width:27px;stroke-opacity:1"/>
      <svg:path id="path831" title="Tuvalu" class="land" d="m 917.18234,648.174 4.95,-6 -1.29,-5.94 -5.25,-8.25 -0.54,-15.66 -4.44,-8.61 -1.17,13.41 0.36,10.44 2.67,7.62 1.14,5.94 -2.58,6.78 -5.58,8.04 z" style="fill:#080000;fill-opacity:1;stroke:none;stroke-width:27px;stroke-opacity:1"/>
      <svg:path id="path833" title="Tuvalu" class="land" d="m 1052.6123,804.654 -3.27,-8.94 -3.45,-2.37 -0.27,0.75 2.76,3.75 3.3,8.22 z" style="fill:#000000;fill-opacity:1;stroke:none;stroke-width:27px;stroke-opacity:1"/>
    </svg:g>
  </svg:g>
</svg:svg></g>
</svg>
