<?xml version="1.0" encoding="utf-8"?>
<svg xmlns="http://www.w3.org/2000/svg" fill="none" version="1.1" viewBox="-1 -2835.65 2836.65 2836.65" x="-1pt" y="-2835.65pt" width="2836.65pt" height="2836.65pt" stroke-width="0.566929" stroke-miterlimit="10.000000">
 <path d="M0 -0L2834.65 -0L2834.65 -2834.65L0 -2834.65Z" fill="#fff"/>
 <g fill="black" transform="matrix(3.571429,-0.000000,-0.000000,3.571429,0.000000,-2834.645669)"><svg:svg xmlns:inkscape="http://www.inkscape.org/namespaces/inkscape" xmlns:sodipodi="http://sodipodi.sourceforge.net/DTD/sodipodi-0.dtd" xmlns="http://www.w3.org/2000/svg" xmlns:svg="http://www.w3.org/2000/svg" width="210mm" height="210mm" viewBox="0 0 210 210" version="1.1" id="svg5" inkscape:version="1.1 (c68e22c387, 2021-05-23)" sodipodi:docname="tuvalu.svg">
  <sodipodi:namedview id="namedview7" pagecolor="#ffffff" bordercolor="#666666" borderopacity="1.0" inkscape:pageshadow="2" inkscape:pageopacity="0.0" inkscape:pagecheckerboard="0" inkscape:document-units="mm" showgrid="false" inkscape:zoom="0.77771465" inkscape:cx="397.31796" inkscape:cy="561.25984" inkscape:window-width="2560" inkscape:window-height="1387" inkscape:window-x="1432" inkscape:window-y="1588" inkscape:window-maximized="1" inkscape:current-layer="layer1"/>
  <svg:defs id="defs2"/>
  <svg:g inkscape:label="Layer 1" inkscape:groupmode="layer" id="layer1">
    <svg:g transform="matrix(0.33984899,0,0,0.33984899,-66.841598,-86.808619)" id="g835">
      <svg:path id="TV" title="Tuvalu" class="land" d="m 799.5,797.79 0.13,-4.13 -1.17,-2.44 -0.55,-0.24 1.16,2.92 0.25,4.33 z" style="fill:#000000;stroke:#000000;stroke-width:9px"/>
      <svg:path id="path825" title="Tuvalu" class="land" d="m 217.66,323.67 -0.06,-0.88 -0.62,-1.46 0.06,0.47 0.42,1 0.05,0.49 v 0.62 z" style="fill:#000000;stroke:#000000;stroke-width:9px"/>
      <svg:path id="path827" title="Tuvalu" class="land" d="m 543.32,386.47 -0.15,-2.1 -0.48,-1.84 -0.59,-0.21 -4.88,-4.33 0.58,2.04 3.13,5.94 1.83,1.52 z" style="fill:#000000;stroke:#000000;stroke-width:9px"/>
      <svg:path id="path829" title="Tuvalu" class="land" d="m 479.18,500.11 -1.58,2.71 -1.62,3.59 -0.46,2.76 1.53,0.21 z" style="fill:#000000;stroke:#000000;stroke-width:9px"/>
      <svg:path id="path831" title="Tuvalu" class="land" d="m 652.31,607.63 1.65,-2 -0.43,-1.98 -1.75,-2.75 -0.18,-5.22 -1.48,-2.87 -0.39,4.47 0.12,3.48 0.89,2.54 0.38,1.98 -0.86,2.26 -1.86,2.68 z" style="fill:#000000;stroke:#000000;stroke-width:9px"/>
      <svg:path id="path833" title="Tuvalu" class="land" d="m 793.65,785.4 -1.09,-2.98 -1.15,-0.79 -0.09,0.25 0.92,1.25 1.1,2.74 z" style="fill:#000000;stroke:#000000;stroke-width:9px"/>
    </svg:g>
  </svg:g>
</svg:svg></g>
</svg>
